<?xml version="1.0" encoding="UTF-8" standalone="no"?><!DOCTYPE svg PUBLIC "-//W3C//DTD SVG 1.1//EN" "http://www.w3.org/Graphics/SVG/1.1/DTD/svg11.dtd"><svg width="100%" height="100%" viewBox="0 0 731 670" version="1.1" xmlns="http://www.w3.org/2000/svg" xmlns:xlink="http://www.w3.org/1999/xlink" xml:space="preserve" xmlns:serif="http://www.serif.com/" style="fill-rule:evenodd;clip-rule:evenodd;stroke-linejoin:round;stroke-miterlimit:2;"><g transform="matrix(1,0,0,1,-781,-1539)"><g id="isologo_c_monocroma" transform="matrix(0.9125,0,0,1,5.784517,-2254)"><rect x="850" y="3793" width="800" height="670" style="fill:none;"/><clipPath id="_clip1"><rect x="850" y="3793" width="800" height="670"/></clipPath><g clip-path="url(#_clip1)"><g transform="matrix(0.427736,0,0,0.388116,8305.830722,2551.470261)"><g transform="matrix(0.547049,0,0,0.547049,-7548.087393,1816.285369)"><g transform="matrix(0.915334,0,0,0.915334,-3936.935823,286.00207)"><g transform="matrix(1,0,0,1,-7439.110107,-2690.086396)"><path d="M-6484.902,7400.023L-6406.026,7400.023L-6303.959,7669.503L-6096.554,7400.023L-5921.199,7400.023L-6030.491,7959.207L-6201.88,7959.207L-6150.687,7697.284L-6273.256,7852.37L-6401.267,7852.37L-6464.872,7693.128L-6516.877,7959.207L-6688.266,7959.207L-6612.611,7572.124L-6484.902,7400.023Z"/></g><g transform="matrix(1,0,0,1,-7412.003807,-2690.086396)"><path d="M-5958.687,7959.207L-5849.395,7400.023L-5374.015,7400.023L-5399.782,7531.86L-5703.773,7531.86L-5719.022,7609.881L-5479.883,7609.881L-5505.65,7741.718L-5744.79,7741.718L-5761.53,7827.37L-5457.539,7827.37L-5483.307,7959.207L-5958.687,7959.207Z"/></g><g transform="matrix(1,0,0,1,-7353.008935,-2690.086396)"><path d="M-4906.349,7697.284L-5028.918,7852.37L-5156.929,7852.37L-5220.534,7693.128L-5272.539,7959.207L-5443.928,7959.207L-5334.636,7400.023L-5161.688,7400.023L-5059.622,7669.503L-4852.216,7400.023L-4676.861,7400.023L-4786.153,7959.207L-4957.542,7959.207L-4906.349,7697.284Z"/></g><g transform="matrix(1,0,0,1,-8683.447824,-2690.086396)"><path d="M-4906.349,7697.284L-5028.918,7852.37L-5156.929,7852.37L-5220.534,7693.128L-5272.539,7959.207L-5443.928,7959.207L-5334.636,7400.023L-5161.688,7400.023L-5059.622,7669.503L-4852.216,7400.023L-4676.861,7400.023L-4786.153,7959.207L-4957.542,7959.207L-4906.349,7697.284Z"/></g></g><g transform="matrix(0.915334,0,0,0.915334,-1421.341783,331.356613)"><g transform="matrix(16.313203,0,0,15.356867,-120791.403219,-55038.063507)"><path d="M6405.506,3847.581C6405.885,3847.581 6407.781,3847.583 6409.674,3848.119C6411.025,3848.501 6412.363,3849.161 6413.229,3850.223C6414.102,3851.293 6414.496,3852.763 6414.617,3854.197C6414.787,3856.201 6414.438,3858.109 6414.368,3858.49L6413.454,3863.459C6413.323,3864.168 6412.402,3869.003 6409.424,3871.518C6406.46,3874.022 6401.643,3874.056 6400.935,3874.056L6389.639,3874.056L6387.811,3883.994L6377.305,3883.994L6384.004,3847.581L6405.506,3847.581ZM6403.919,3858.178C6404.034,3857.557 6403.984,3857.118 6403.801,3856.814C6403.605,3856.49 6403.277,3856.347 6402.993,3856.266C6402.638,3856.165 6402.324,3856.166 6402.238,3856.166L6392.931,3856.166L6391.219,3865.471L6400.227,3865.471C6400.517,3865.471 6402.575,3865.485 6403.005,3863.147L6403.919,3858.178Z"/></g><g transform="matrix(16.313203,0,0,15.356867,-120744.872968,-55038.063507)"><path d="M6460.948,3875.409L6479.085,3875.409L6477.506,3883.994L6448.862,3883.994L6455.561,3847.581L6466.068,3847.581L6460.948,3875.409Z"/></g><g transform="matrix(16.313203,0,0,15.356867,-120719.295096,-55038.063507)"><path d="M6486.816,3847.581L6491.61,3863.493L6502.26,3847.581L6513.619,3847.581L6494.938,3874.324L6493.159,3883.994L6482.653,3883.994L6484.483,3874.048L6475.734,3847.581L6486.816,3847.581Z"/></g><g transform="matrix(1,0,0,1,-1376.27469,-3396.363785)"><path d="M-14488.204,7437.465L-14314.938,7437.465C-14308.754,7437.465 -14277.83,7437.497 -14246.952,7445.715C-14224.906,7451.583 -14203.084,7461.726 -14188.955,7478.026C-14174.708,7494.462 -14168.291,7517.041 -14166.309,7539.058C-14163.539,7569.833 -14169.229,7599.137 -14170.372,7604.987L-14218.1,7849.186C-14220.229,7860.075 -14235.259,7934.322 -14283.84,7972.948C-14332.194,8011.394 -14410.765,8011.912 -14422.327,8011.912L-14595.593,8011.912C-14601.777,8011.912 -14632.702,8011.881 -14663.579,8003.662C-14685.625,7997.794 -14707.447,7987.652 -14721.577,7971.351C-14735.823,7954.916 -14742.24,7932.336 -14744.222,7910.32C-14746.993,7879.544 -14741.303,7850.241 -14740.159,7844.39L-14692.431,7600.192C-14690.303,7589.303 -14675.272,7515.056 -14626.691,7476.429C-14578.337,7437.983 -14499.766,7437.465 -14488.204,7437.465ZM-14368.245,7569.302L-14476.659,7569.302C-14481.387,7569.302 -14514.963,7569.088 -14521.979,7604.987L-14569.708,7849.186C-14571.57,7858.716 -14570.77,7865.453 -14567.776,7870.123C-14564.58,7875.106 -14559.226,7877.295 -14554.59,7878.54C-14548.81,7880.094 -14543.677,7880.075 -14542.286,7880.075L-14433.872,7880.075C-14429.144,7880.075 -14395.568,7880.289 -14388.552,7844.39L-14340.824,7600.192C-14338.961,7590.661 -14339.761,7583.924 -14342.756,7579.254C-14345.951,7574.271 -14351.305,7572.083 -14355.941,7570.837C-14361.721,7569.284 -14366.854,7569.302 -14368.245,7569.302Z"/></g></g></g><g transform="matrix(1,0,0,1,-478.884262,-661.203735)"><g transform="matrix(0.987082,0,0,0.987082,-17099.526908,3084.164382)"><g transform="matrix(1.013087,0,0,1.013087,17323.307082,-3124.526601)"><g transform="matrix(0.987082,0,0,0.987082,-18861.073566,3340.389351)"><g transform="matrix(1.821289,0,0,1.821289,1947.858503,391.931968)"><path d="M479.614,180.515C478.235,190.222 470.234,220.07 469.319,223.485C469.107,224.277 466.812,232.839 464.425,232.494C463.038,232.293 459.312,222.301 458.966,221.373C458.528,220.198 454.431,209.211 450.184,208.4C441.699,206.779 432.882,218.059 431.827,219.408C422.308,231.585 422.81,231.883 415.574,239.302C407.969,247.098 403.177,251.971 391,246.565C390.055,246.146 382.392,241.748 381.787,241.29C365.019,228.592 372.22,208.097 373.71,199.527C374.774,193.408 374.942,193.646 379.085,176.518C379.239,175.882 380.764,169.576 382.032,168.882C383.663,167.99 398.715,169 402.48,169.986C416.534,173.669 425.753,198.15 425.789,198.218C427.231,200.946 429.905,202.83 430.811,202.348C431.86,201.79 429.278,193.251 429.046,192.484C425.975,182.325 421.725,175.233 412.988,168.207C403.17,160.313 385.025,161.728 384.252,160.983C383.183,159.953 383.689,159.838 384.04,158.511C384.088,158.331 386.115,145.065 395.91,140.42C400.942,138.034 416.43,137.192 418.233,137.094C438.733,135.979 438.546,135.935 459.069,137.632C468.716,138.429 480.882,138.469 483.381,149.598C484.293,153.66 482.777,163.304 482.592,164.482C482.288,166.416 481.615,165.866 473.728,168.952C470.205,170.33 460.727,178.721 457.697,183.377C457.594,183.537 456.673,184.952 456.65,185.507C456.551,187.893 460.365,185.535 460.637,185.367C474.597,176.736 474.188,176.275 477.786,175.621C481.288,174.985 480.036,176.959 479.614,180.515Z"/></g><g transform="matrix(1.821289,0,0,1.821289,1947.858503,391.931968)"><path d="M294.177,663.448C294.999,661.767 302.225,646.982 304.329,642.376L307.463,635.032L308.729,632.472C310.082,629.903 310.866,631.552 321.495,635.374C322.186,635.623 329.56,638.274 329.1,640.517C329.053,640.746 322.841,656.232 321.48,659.415C320.946,660.663 315.725,672.872 310.352,672.238C309.652,672.156 297.731,669.339 295.662,668.727C292.273,667.726 292.862,666.748 294.177,663.448Z"/></g><path d="M2949.225,1015.457C2945.535,1016.484 2945.714,1016.581 2942.035,1016.525C2933.272,1016.392 2923.94,1009.559 2919.6,1007.864C2905.539,1002.37 2902.496,998.255 2904.954,988.375C2907.467,978.275 2909.404,954.808 2916.512,951.896C2921.222,949.966 2922.441,951.266 2924.457,946.53C2925.131,944.946 2925.276,934.608 2938.514,934.315C2939.298,934.298 2947.559,934.115 2946.998,939.231C2946.924,939.912 2946.151,946.958 2946.72,947.78C2948.363,950.158 2950.447,947.39 2950.638,947.136C2953.212,943.717 2948.438,938.609 2964.71,920.387C2968.753,915.86 2972.545,912.986 2979.834,908.857C2998.339,898.374 3028.075,903.967 3074.415,904.886C3115.213,905.695 3132.256,907.039 3179.557,907.093C3197.113,907.161 3214.668,907.229 3232.224,907.297C3233.6,907.303 3249.219,905.677 3257.142,911.928C3260.633,914.683 3262.315,919.093 3262.589,919.809C3266.259,929.434 3264.542,930.958 3264.807,931.576C3265.99,934.333 3282.248,931.909 3282.921,935.802C3283.465,938.95 3281.926,947.395 3281.745,948.39C3281.53,949.569 3281.844,949.583 3280.16,963.298L3278.889,971.854C3277.76,975.603 3277.867,975.461 3277.598,979.326C3277.559,979.892 3277.279,983.928 3274.48,985.694C3273.589,986.256 3273.602,986.004 3257.762,988.089C3250.286,989.073 3251.334,990.962 3248.045,997.65C3247.136,999.5 3241.973,1010 3227.617,1013.351C3224.652,1014.044 3212.078,1012.882 3210.122,1017.22C3206.852,1024.47 3201.924,1050.741 3191.96,1061.612C3190.958,1062.705 3184.828,1069.393 3176.11,1071.217C3165.061,1073.528 3153.864,1067.275 3157.398,1046.698C3157.771,1044.527 3161.75,1021.36 3161.416,1019.462C3161.131,1017.838 3157.617,1016.758 3156.486,1021.275C3154.188,1030.452 3155.459,1030.559 3153.272,1039.636C3153.145,1040.163 3152.025,1044.81 3150.752,1045.924C3147.936,1048.387 3121.78,1053.152 3117.866,1056.147C3112.836,1059.997 3111.183,1072.483 3110.983,1074.001C3108.058,1096.091 3118.16,1163.738 3117.465,1194.142C3117.08,1210.948 3113.609,1217.317 3091.617,1225.447C3090.348,1225.916 3080.559,1229.536 3074.808,1227.332C3068.121,1224.771 3076.172,1199.138 3078.02,1190.64C3081.723,1173.611 3084.478,1128.066 3082.775,1105.019C3082.636,1103.135 3082.843,1103.154 3081.257,1081.448C3079.82,1061.795 3082.046,1059.097 3077.242,1059.234C3075.338,1059.288 3069.474,1061.822 3067.66,1066.813C3066.609,1069.706 3065.603,1089.279 3059.56,1097.255C3057.954,1099.374 3060.14,1108.902 3050.542,1125.288C3050.327,1125.655 3032.937,1165.674 3018.372,1177.499C3008.007,1185.915 2996.057,1186.194 2993.985,1186.243C2990.569,1188.597 2989.377,1189.555 2985.745,1196.062C2984.682,1197.968 2972.765,1219.319 2972.429,1219.869C2958.649,1242.474 2959.156,1242.689 2950.651,1254.652C2938.374,1271.922 2938.93,1272.088 2925.711,1288.53C2922.907,1292.016 2904.245,1315.226 2887.618,1329.466C2885.043,1331.67 2867.459,1346.73 2848.879,1346.617C2835.289,1346.534 2814.144,1338.487 2802.339,1339.574C2781.067,1341.533 2753.725,1347.063 2718.818,1339.445L2709.686,1337.68L2701.099,1335.699C2699.999,1335.419 2692.837,1331.957 2691.021,1339.872C2690.09,1343.933 2684.541,1380.019 2681.5,1394.539C2659.409,1500.044 2659.47,1500.039 2658.901,1502.041C2652.481,1524.622 2651.068,1524.184 2647.586,1547.52C2640.155,1597.329 2625.294,1599.838 2608.515,1617.895C2599.127,1627.999 2595.496,1632.549 2582.931,1650.857C2578.54,1657.253 2566.638,1678.723 2564.159,1682.445L2559.146,1689.035C2559.023,1689.204 2557.865,1690.782 2557.907,1691.334C2558.095,1693.786 2559.109,1692.742 2561.055,1691.531C2562.533,1690.611 2561.522,1689.736 2577.628,1677.428C2587.498,1669.886 2587.49,1670.102 2596.955,1662.153C2597.552,1661.651 2603.596,1656.575 2604.993,1656.635C2607.388,1656.739 2606.471,1660.147 2606.386,1660.461C2602.93,1673.297 2591.389,1701.253 2579.373,1720.433C2573.893,1729.18 2562.245,1747.967 2535.541,1777.438C2520.306,1794.251 2521.215,1794.875 2504.097,1809.849C2494.891,1817.902 2492.884,1817.774 2494.684,1820.105C2495.952,1821.749 2511.609,1810.654 2515.42,1808.538C2521.885,1804.948 2537.827,1799.771 2570.087,1775.556C2573.378,1773.086 2593.325,1758.071 2594.075,1757.502C2600.232,1752.831 2600.423,1753.215 2605.537,1747.596C2606.487,1746.552 2606.246,1746.303 2607.651,1746.341C2608.527,1746.364 2607.906,1746.898 2605.334,1757.056C2604.617,1759.89 2598.965,1782.21 2593.65,1791.676C2593.197,1792.482 2582.897,1808.056 2581.849,1809.5C2580.641,1811.163 2580.922,1811.316 2568.573,1831.493C2568.399,1831.779 2566.607,1834.706 2566.82,1835.287C2567.585,1837.372 2567.959,1837.151 2570.144,1836.536C2570.848,1836.337 2588.085,1828.625 2588.988,1829.971C2589.497,1830.728 2583.936,1858.126 2581.022,1873.577C2577.591,1891.761 2577.392,1891.49 2574.718,1908.143C2572.176,1923.978 2564.983,1944.096 2563.375,1950.121C2562.207,1954.501 2550.921,1952.834 2549.831,1952.672C2521.065,1948.422 2521.233,1948.272 2492.643,1943.23C2491.635,1943.052 2437.11,1932.146 2432.281,1931.18C2393.86,1923.495 2340.543,1907.392 2327.893,1902.723C2315.354,1898.096 2313.728,1899.271 2313.508,1895.529C2313.294,1891.896 2322.885,1870.034 2323.833,1867.871C2330.033,1853.738 2331.855,1848.001 2332.419,1846.226C2335.031,1838.006 2323.785,1837.505 2322.515,1837.223C2311.321,1834.733 2303.068,1860.638 2303.063,1860.65C2302.443,1862.008 2302.459,1861.802 2294.82,1877.381C2294.372,1878.296 2289.872,1887.474 2287.626,1887.888C2286.086,1888.171 2271.881,1881.046 2270.547,1880.377C2259.459,1874.816 2247.556,1871.624 2246.269,1869.723C2244.598,1867.256 2253.432,1844.612 2254.257,1842.497C2255.023,1840.534 2263.065,1819.92 2259.606,1816.702C2255.263,1812.66 2252.528,1816.744 2252.197,1817.238C2249.872,1820.709 2238.73,1841.283 2233.46,1853.569C2233.308,1853.923 2231.668,1861.441 2225.239,1857.779C2219.432,1854.471 2187.855,1833.369 2183.344,1829.625C2180.718,1827.445 2164.968,1814.373 2153.063,1799.564C2148.436,1793.808 2134.303,1773.312 2130.466,1765.99C2129.38,1763.917 2125.086,1756.735 2126.853,1751.618C2127.712,1749.13 2130.523,1738.552 2140.239,1715.261C2144.538,1704.957 2155.699,1676.539 2157.024,1673.165C2157.83,1671.113 2169.636,1647.792 2168.027,1627.632C2167.035,1615.203 2166.526,1608.998 2184.234,1592.839L2194.482,1583.883C2199.642,1578.964 2198.441,1578.223 2197.665,1571.251C2196.783,1563.326 2192.591,1546.835 2212.142,1521.811C2226.08,1503.971 2230.171,1495.97 2224.938,1486.067C2223.219,1482.813 2220.336,1484.967 2220.016,1485.206C2218.173,1486.583 2201.748,1498.857 2196.359,1501.555C2173.776,1512.864 2165.522,1503.951 2157.324,1491.374C2155.081,1487.932 2145.951,1468.128 2137.541,1456.846C2130.597,1447.531 2130.88,1447.622 2123.56,1438.383C2122.075,1436.509 2109.012,1420.023 2108.01,1412.866C2107.496,1409.194 2109.077,1395.376 2114.081,1383.813C2120.212,1369.647 2127.73,1360.357 2128.934,1359.943C2132.109,1358.85 2132.365,1360.67 2130.87,1363.667C2127.001,1371.418 2124.947,1378.938 2134.518,1395.998C2139.032,1404.045 2138.903,1403.889 2144.116,1411.588C2149.533,1419.59 2180.113,1473.134 2186.448,1478.371C2195.08,1485.508 2199.158,1485.245 2212.291,1476.71L2219.373,1471.976C2226.659,1467.214 2229.371,1449.256 2232.417,1431.005C2232.482,1430.613 2233.087,1426.993 2231.991,1426.047C2230.606,1424.852 2230.506,1425.537 2212.259,1427.671C2200.718,1429.021 2194.682,1421.785 2189.735,1407.028C2188.53,1403.434 2186.188,1383.722 2183.013,1381.602C2179.781,1379.444 2163.912,1378.813 2158.541,1370.929C2158.33,1370.619 2156.186,1367.472 2157.787,1366.307L2166.501,1365.653C2181.256,1364.601 2224.382,1353.566 2227.742,1354.542C2229.381,1355.018 2229.115,1366.135 2233.783,1365.217C2236.039,1364.774 2238.508,1343.635 2238.731,1341.727C2239.266,1337.144 2239.685,1334.653 2235.277,1336.24L2229.18,1339.131C2227.421,1339.841 2207.894,1346.232 2206.686,1346.507C2198.03,1348.474 2188.171,1349.016 2186.549,1349.106C2182.385,1349.335 2154.786,1352.409 2138.452,1328.592C2132.677,1320.17 2130.373,1298.987 2130.085,1296.337C2129.234,1288.515 2128.877,1266.469 2130.372,1256.153C2134.045,1230.787 2146.842,1181.007 2157.157,1159.639C2164.928,1143.541 2173.047,1126.308 2176.689,1119.784C2181.464,1111.229 2181.421,1111.359 2186.327,1102.781C2197.547,1083.163 2196.885,1079.859 2194.818,1071.974C2189.999,1053.592 2196.521,998.315 2226.582,960.923L2232.946,953.696C2241.397,943.997 2263.702,924.69 2280.741,917.238C2308.382,905.149 2327.42,905.423 2363.963,890.495C2383.725,882.423 2383.144,881.251 2403.726,876.256C2420.632,872.154 2421.079,868.585 2425.065,858.964C2431.752,842.822 2436.791,829.528 2446.862,819.574C2451.75,814.743 2464.267,807.896 2462.376,788.094C2461.619,780.169 2453.278,759.38 2457.33,722.497C2458.18,714.76 2462.679,697.697 2467.532,689.426C2468.441,687.876 2472.846,680.369 2481.245,671.637C2495.665,656.646 2500.98,642.202 2503.929,635.267C2512.554,614.98 2534.564,578.806 2559.246,560.832C2591.764,537.151 2621.931,532.386 2624.051,531.869C2641.59,527.591 2677.562,524.096 2704.289,528.552C2741.396,534.738 2769.23,551.066 2777.04,555.577C2783.587,559.359 2799.857,573.144 2807.097,580.609C2819.039,592.921 2827.725,609.125 2843.157,629.91C2845.92,633.632 2851.012,643.717 2852.259,649.625C2857.071,672.421 2846.169,716.892 2844.771,722.591C2841.38,736.423 2841.524,736.268 2838.121,749.911C2820.564,820.291 2813.944,833.787 2813.699,848.161C2813.595,854.322 2816.759,873.616 2809.486,900.97C2806.111,913.659 2790.635,939.754 2788.723,942.978C2778.681,959.91 2765.277,971.254 2762.842,973.315C2759.122,976.463 2752.767,981.011 2751.871,981.652C2747.106,985.063 2734.968,989.309 2734.661,990.396C2733.929,992.989 2743.486,997.557 2752.207,1010.049C2757.208,1017.213 2765.111,1042.073 2765.84,1043.389C2770.805,1052.342 2785.245,1063.683 2794.762,1076.391C2796.825,1079.145 2801.642,1078.934 2802.275,1078.907C2803.361,1078.859 2803.209,1078.597 2815.432,1075.55C2822.434,1073.805 2848.285,1069.495 2856.231,1069.208C2874.804,1068.537 2879.66,1075.493 2884.656,1073.652C2899.804,1068.069 2926.399,1035.846 2946.337,1026.555C2968.235,1016.35 2969.2,1017.851 2974.719,1011.59C2976.859,1009.162 2975.669,1007.199 2975.471,1006.872C2970.982,999.467 2946.521,988.248 2946.362,1001.093C2946.299,1006.154 2948.152,1009.43 2948.515,1010.073L2949.677,1012.148L2949.225,1015.457ZM3184.35,1030.318L3186.059,1021.129C3186.164,1020.594 3187.635,1013.085 3182.005,1015.638C3179.838,1016.621 3177.814,1024.075 3177.6,1024.865C3177.213,1026.29 3174.751,1035.354 3174.227,1043.019C3174.199,1043.432 3173.786,1049.473 3178.289,1046.207C3181.199,1044.097 3184.046,1031.645 3184.35,1030.318ZM2296.931,1073.828C2290.968,1090.734 2273.899,1142.677 2268.147,1168.639C2267.34,1172.283 2267.471,1172.231 2258.458,1214.273C2256.103,1225.256 2256.411,1225.193 2254.076,1236.1C2253.965,1236.619 2252.813,1241.999 2253.765,1242.737L2256.02,1242.642C2257.782,1241.419 2262.156,1216.824 2275.657,1176.107C2281.285,1159.133 2281.028,1159.27 2283.682,1152.425C2286.844,1144.272 2286.365,1144.283 2289.55,1136.146C2295.364,1121.293 2294.828,1121.316 2300.631,1106.625C2312.727,1076.003 2321.768,1051.745 2326.961,1039.393C2327.081,1039.108 2332.562,1023.404 2342.642,1006.235C2348.75,995.83 2353.649,986.739 2374.292,965.474C2377.37,962.303 2394.954,947.289 2407.421,939.364C2408.012,938.988 2413.648,935.406 2414.258,933.886C2415.036,931.948 2413.927,932.129 2409.607,927.377C2400.566,917.431 2401.7,916.371 2390.35,908.939C2375.96,899.516 2369.262,906.888 2365.488,908.499C2361.175,910.341 2356.886,912.238 2352.585,914.105C2350.686,914.929 2334.067,922.144 2328.827,924.342C2325.596,925.697 2326.286,929.256 2330.403,927.945C2331.859,927.482 2355.466,915.588 2374.458,926.162C2379.665,929.061 2384.07,936.572 2382.927,939.025C2381.46,942.173 2358.733,955.795 2339.047,985.034C2336.708,988.507 2324.559,1008.709 2321.075,1015.925C2314.714,1029.101 2307.431,1045.979 2306.294,1048.615C2303.94,1054.069 2297.65,1071.8 2296.931,1073.828ZM2584.403,813.612C2584.498,801.987 2584.818,801.878 2584.221,801.147C2584.057,800.946 2582.816,799.426 2580.995,800.837C2579.592,801.926 2579.271,805.796 2579.234,806.25C2578.375,816.624 2579.011,816.417 2581.283,826.641C2581.75,828.744 2581.754,828.537 2583.059,830.143L2583.291,830.804L2583.452,830.878C2584.312,830.804 2584.906,830.087 2584.997,829.977C2585.872,828.921 2584.43,815.917 2584.403,813.612ZM3081.273,1006.606C3077.89,1009.187 3077.809,1008.885 3075.659,1012.323C3073.246,1016.181 3069.133,1027.987 3068.726,1032.164C3068.475,1034.743 3069.332,1035.438 3066.835,1036.163C3066.418,1036.284 3067.152,1034.729 3061.889,1033.923C3056.738,1033.135 3020.474,1027.581 2996.864,1029.992C2991.028,1030.587 2984.706,1033.484 2984.169,1034.209C2983.791,1034.719 2984.648,1036.851 2985.369,1037.086C2987.142,1037.663 2987.237,1036.64 3008.646,1038.201C3012.962,1038.516 3059.579,1045.832 3065.058,1041.763C3065.488,1041.444 3065.112,1041.18 3069.747,1036.985C3071.167,1035.7 3070.707,1035.532 3083.952,1017.72C3084.667,1016.759 3093.01,1005.538 3090.898,1004.455C3087.744,1002.839 3081.955,1006.209 3081.273,1006.606ZM2733.148,577.622C2731.907,577.49 2732.566,576.574 2731.305,576.448L2717.189,574.529C2715.533,574.344 2696.638,572.229 2696.361,574.986C2696.197,576.612 2698.335,577.056 2698.575,577.106C2700.321,577.47 2721.564,580.821 2723.565,581.137C2726.479,581.597 2738.082,582.174 2755.015,590.234C2755.914,590.662 2764.437,594.719 2765.617,596.747C2768.468,601.644 2761.889,600.633 2761.441,600.564C2746.96,598.337 2747.024,599.582 2732.398,600.655C2709.721,602.318 2709.644,601.335 2699.292,604.055C2697.64,604.489 2697.213,604.078 2696.92,605.841C2696.597,607.778 2696.908,607.84 2698.789,608.028C2698.831,608.032 2715.177,605.69 2738.689,608.492C2754.033,610.32 2754.03,609.696 2768.912,613.761C2770.693,614.248 2790.286,619.6 2789.53,624.137C2788.992,627.368 2787.346,625.802 2756.737,626.665C2753.653,626.752 2753.721,627.071 2718.26,629.222C2708.736,629.799 2682.115,633.737 2675.914,635.403C2652.562,641.675 2648.574,647.461 2643.514,656.543C2632.079,677.069 2629.22,698.919 2620.772,737.059C2615.537,760.692 2606.651,797.569 2616.199,818.497C2616.655,819.496 2623.255,829.027 2625.25,831.322C2627.078,833.424 2636.201,843.915 2653.244,852.03C2654.975,852.854 2666.13,858.166 2676.208,858.912C2685.542,859.602 2688.96,853.549 2692.531,851.18L2694.594,849.538C2697.001,847.236 2695.639,846.22 2720.394,816.87C2721.608,815.431 2733.28,798.437 2745.7,787.819C2759.236,776.245 2771.929,778.94 2772.316,793.55C2772.465,799.163 2776.861,804.604 2778.335,808.005C2781.418,815.115 2782.286,814.976 2781.531,817.51C2780.571,820.732 2777.02,818.235 2776.702,818.012C2775.633,817.261 2769.649,810.855 2759.602,812.084C2744.339,813.95 2724.795,842.046 2718.625,849.728L2710.185,860.692C2707.219,864.306 2682.599,894.3 2676.321,908.327C2674.756,911.824 2675.363,911.813 2675.003,915.575C2674.966,915.962 2674.606,919.725 2675.308,920.429C2677.117,922.242 2679.481,918.995 2679.703,918.69C2682.929,914.259 2690.808,894.491 2707.174,877.614C2709.076,875.652 2727.381,856.775 2734.544,857.172C2734.871,857.19 2737.93,857.359 2736.05,860.974C2735.536,861.961 2735.114,861.339 2726.897,871.44C2720.746,879.001 2721.571,879.387 2715.459,886.741C2715.18,887.076 2712.397,890.425 2713.069,891.629C2713.168,891.806 2715.429,892.077 2716.053,891.724C2717.649,890.821 2715.508,888.471 2733.051,876.35C2739.222,872.086 2749.172,862.419 2773.792,863.877C2786.674,864.64 2794.947,870.021 2796.074,882.562C2797.986,903.833 2775.18,932.783 2773.108,935.666C2770.97,938.641 2748.913,971.863 2712.586,971.986C2711.128,971.991 2698.119,972.035 2694.403,970.683C2691.259,969.538 2690.913,969.406 2689.004,972.05C2687.589,974.011 2681.896,974.935 2681.239,975.042C2678.482,975.489 2671.225,976.109 2658.245,968.715C2655.98,967.425 2655.967,967.499 2629.656,953.076C2628.584,952.488 2616.755,946.005 2615.679,946.903C2614.466,947.915 2615.545,949.631 2615.669,949.829L2620.738,954.877C2621.577,955.691 2625.674,959.665 2632.197,963.944C2648.181,972.573 2648.007,972.779 2650.664,973.669C2658.43,976.27 2678.895,985.685 2702.094,984.133C2711.068,983.532 2728.179,976.599 2730.367,975.713C2744.743,969.887 2760.302,957.779 2767.114,949.684C2769.275,947.116 2781.251,932.885 2791.345,915.422C2792.868,912.787 2798.192,901.546 2799.32,897.379C2802.645,885.095 2800.482,872.227 2800.119,870.072C2795.525,842.751 2802.779,831.278 2803.267,830.041C2809.643,813.893 2813.586,788.741 2821.002,760.662L2824.259,747.611L2826.576,738.996C2832.466,717.544 2843.315,659.964 2837.17,645.571C2832.662,635.015 2825.128,635.099 2821.974,629.48C2817.949,622.31 2819,621.977 2814.613,614.839C2806.584,601.776 2780.51,573.664 2754.875,560.696C2750.342,558.403 2733.651,548.481 2706.07,543.932C2700.693,543.045 2676.471,541.914 2662.493,543.261C2627.602,546.624 2609.66,554.471 2600.902,558.531C2600.178,558.866 2592.888,562.246 2592.53,563.949C2591.801,567.417 2596.08,565.582 2596.385,565.452L2604.621,561.582L2611.862,558.79C2630.973,552.203 2669.582,547.479 2692.285,554.527C2715.646,561.778 2727.46,570.469 2728.591,571.141L2729.706,571.849L2732.736,573.9L2733.502,574.949C2734.667,575.992 2735.347,575.867 2734.8,576.82C2734.271,577.742 2733.295,577.638 2733.148,577.622ZM3036.749,1111.11C3039.981,1111.607 3039.823,1112.164 3042.033,1111.377C3044.041,1110.661 3047.977,1103.597 3041.411,1103.598C3026.751,1103.601 3025.575,1102.378 3024.885,1104.96C3024.258,1107.307 3035.726,1110.799 3036.749,1111.11ZM2888.067,1225.335C2881.172,1232.843 2878.338,1238.675 2877.711,1239.965C2872.888,1249.889 2869.101,1263.824 2865.904,1290.745C2865.8,1291.621 2865.24,1296.34 2866.258,1301.762C2866.832,1304.818 2869.969,1304.527 2870.356,1303.831C2870.928,1302.801 2870.352,1293.883 2871.165,1290.679C2871.287,1290.197 2877.704,1267.328 2878.274,1265.298C2879.964,1259.275 2886.969,1239.456 2889.362,1234.545L2892.746,1228.629C2893.514,1227.326 2893.396,1227.206 2894.953,1227.048L2896.654,1227.088L2897.455,1232.568C2897.693,1234.896 2895.423,1272.396 2887.21,1288.815C2885.604,1292.027 2883.944,1293.3 2887.421,1294.229C2888.362,1294.481 2887.86,1293.555 2896.253,1285.861C2906.788,1276.205 2906.176,1275.774 2924.994,1254.596C2933.057,1245.522 2926.601,1244.207 2924.677,1242.649C2917.247,1236.634 2906.073,1212.888 2904.133,1211.977C2901.273,1210.636 2898.284,1213.595 2897.913,1213.962C2897.058,1214.809 2897.557,1215.002 2888.067,1225.335ZM2530.727,804.166C2530.417,808.471 2537.583,809.119 2538.307,809.185L2545.018,809.308L2545.657,809.309L2550.888,809.235C2551.208,809.177 2553.463,808.764 2554.441,807.26L2554.68,806.85C2555.715,804.85 2555.947,799.612 2555.975,798.974C2556.218,793.473 2553.91,789.576 2553.485,788.859L2547.818,776.881L2546.948,774.107C2545.356,771.977 2543.763,774.009 2543.597,774.22C2542.889,774.858 2542.118,776.94 2542.025,777.193L2539.204,784.332L2535.893,791.451C2535.395,792.429 2530.555,801.931 2530.727,804.166ZM2871.787,1092.874L2873.667,1092.803L2875.193,1091.872L2876.505,1092.031L2876.294,1088.386C2874.867,1084.661 2849.298,1087.364 2846.964,1087.61C2842.292,1088.104 2831.524,1089.793 2830.184,1090.003C2814.595,1092.447 2792.762,1102.412 2781.28,1104.498C2766.612,1107.164 2766.555,1105.173 2751.787,1108.298C2732.684,1112.34 2732.761,1111.824 2713.351,1111.319C2711.458,1111.27 2711.482,1111.421 2689.679,1111.569C2674.325,1111.673 2666.781,1120.958 2661.92,1117.474C2656.259,1113.417 2656.57,1112.831 2649.804,1111.589C2648.745,1111.394 2642.34,1111.335 2644.682,1104.883C2647.563,1096.944 2647.753,1090.202 2634.764,1081.487C2628.283,1077.14 2591.977,1055.618 2589.776,1043.145C2588.644,1036.728 2595.405,1031.667 2585.668,1014.165C2580.13,1004.209 2580.774,1004.014 2575.288,994.077C2574.389,992.449 2565.38,973.572 2546.43,961.347C2535.669,954.404 2527.254,947.776 2497.888,941.534C2497.481,941.448 2493.204,940.539 2492.864,942.899C2492.502,945.416 2493.974,944.656 2502.843,947.92C2519.469,954.038 2528.208,960.969 2541.218,977.418C2541.762,978.105 2544.643,981.748 2546.813,986.844C2548.637,991.126 2545.342,992.292 2543.344,991.518C2538.849,989.776 2539.22,989.209 2534.783,987.663C2524.133,983.953 2500.275,979.503 2493.862,977.568C2493.461,977.447 2489.442,976.235 2488.754,976.425C2488.637,976.458 2487.213,978.879 2487.229,979.026C2487.265,979.367 2487.319,979.276 2504.618,992.528C2538.779,1018.697 2542.023,1022.535 2549.906,1030.154L2551.75,1031.839C2554.386,1034.177 2553.003,1036.515 2549.12,1035.922L2538.345,1033.849L2529.43,1032.617C2526.139,1032.228 2506.448,1029.9 2488.155,1029.001C2487.88,1028.987 2485.098,1028.851 2484.713,1029.078L2484.191,1030.238L2483.385,1031.129L2483.278,1031.462C2483.272,1032.332 2488.983,1033.555 2489.5,1033.665C2492.275,1034.259 2492.091,1034.773 2522.7,1046.179C2532.772,1049.932 2545.961,1057.409 2547.915,1058.517L2556.545,1063.716C2556.579,1063.738 2569.251,1070.206 2582.521,1080.936C2584.564,1082.588 2585.385,1082.309 2584.873,1084.814C2584.576,1086.267 2579.935,1088.082 2579.456,1088.269C2537.035,1104.859 2537.065,1104.887 2535.975,1105.216C2535.48,1105.365 2530.643,1106.822 2530.472,1108.605C2530.211,1111.329 2531.771,1110.365 2542.089,1113.001C2556.682,1116.73 2578.437,1111.172 2598.85,1111.103C2599.836,1111.1 2611.21,1111.062 2610.808,1114.068C2610.652,1115.238 2609.956,1114.663 2600.629,1124.747C2594.571,1131.297 2578.231,1151.797 2574.036,1158.042C2572.827,1159.841 2560.259,1178.549 2560.308,1181.404C2560.35,1183.914 2562.997,1182.718 2563.227,1182.613C2564.291,1182.132 2563.494,1181.164 2574.315,1173.125C2577.037,1171.103 2588.545,1162.67 2589.784,1161.762C2604.816,1150.746 2604.31,1150.251 2621.114,1141.938C2621.88,1141.558 2630.364,1137.361 2631.589,1139.794C2632.243,1141.093 2622.872,1162.017 2621.666,1165.006C2620.436,1168.056 2613.918,1186.51 2605.326,1203.454C2603.829,1206.407 2605.51,1208.952 2608.657,1205.996C2610.744,1204.036 2642.57,1166.646 2650.447,1160.448C2660.893,1152.23 2667.229,1148.642 2669.341,1147.316C2669.916,1146.779 2676.324,1140.795 2677.812,1142.315C2679.781,1144.325 2678.606,1144.717 2676.386,1146.324C2674.352,1147.795 2674.134,1147.145 2672.096,1148.438L2668.503,1152.252C2665.536,1157.506 2661.369,1170.675 2660.85,1172.313L2656.601,1187.019C2656.498,1187.356 2655.121,1191.857 2659.026,1190.698L2662.901,1188.922C2665.257,1188.143 2666.473,1188.969 2676.016,1182.936C2692.054,1172.797 2692.101,1173.21 2705.955,1163.657C2716.249,1156.559 2716.317,1156.847 2723.862,1151.001C2734.265,1142.939 2754.377,1125.749 2779.274,1122.764C2790.966,1121.362 2791.361,1122.901 2798.352,1132.212C2799.343,1133.531 2809.091,1146.512 2810.075,1149.19C2811.808,1153.9 2811.719,1153.963 2812.057,1154.274C2816.132,1158.021 2816.031,1150.943 2816.024,1150.506C2815.949,1145.206 2813.816,1113.583 2814.001,1112.292C2814.516,1108.692 2820.392,1106.899 2821.083,1106.689C2840.675,1100.71 2840.808,1101.651 2860.396,1095.394C2866.056,1093.586 2865.939,1093.582 2871.787,1092.874ZM3254.071,957.449C3253.867,958.656 3251.571,972.241 3255.807,972.653L3266.873,972.653C3270.165,972.144 3270.572,968.814 3270.627,968.361C3270.851,966.531 3273.135,947.824 3270.991,945.316C3270.02,944.18 3259.878,938.792 3256.181,948.163C3255.329,950.322 3254.204,956.699 3254.071,957.449ZM3245.957,928.279L3246.151,926.518L3245.82,925.138C3245.135,923.826 3236.62,923.851 3235.813,923.853C3191.522,923.979 3150.812,921.924 3148.612,922.427C3146.707,922.861 3146.568,925.314 3147.085,925.733C3147.87,926.369 3175.16,927.223 3175.405,927.239C3194.469,928.468 3238.892,928.31 3240.045,929.129C3240.852,929.701 3240.189,938.371 3240.128,939.172C3240.108,939.432 3239.93,941.757 3241.297,942.206C3244.169,943.149 3245.817,929.445 3245.957,928.279ZM2618.265,1580.116C2621.501,1570.24 2623.251,1553.527 2623.496,1551.188C2623.535,1550.812 2623.895,1547.373 2622.309,1546.608C2620.942,1545.95 2615.886,1547.192 2615.342,1547.325C2611.705,1548.219 2611.71,1547.951 2593.328,1550.131C2587.931,1550.772 2583.856,1552.62 2579.537,1565.915C2578.995,1567.584 2573.948,1583.119 2574.477,1587.254C2574.961,1591.031 2577.434,1592.144 2577.88,1592.345C2579.634,1593.134 2591.725,1594.319 2597.53,1593.778C2611.872,1592.44 2617.35,1581.879 2618.265,1580.116ZM2599.86,908.216L2591.617,897.574L2588.626,893.86C2586.952,892.122 2586.279,891.542 2585.225,893.714C2583.774,896.704 2605.946,924.793 2617.306,931.517L2620.587,933.682C2621.749,933.57 2622.492,932.133 2622.589,931.944C2622.645,931.836 2622.886,931.368 2622.253,930.454L2621.256,930.021L2620.437,928.878L2619.481,928.225C2617.781,926.764 2606.924,917.439 2599.86,908.216ZM2478.885,713.477C2475.43,729.958 2465.353,765.781 2487.315,780.267C2490.615,782.444 2490.849,782.739 2494.358,780.937C2498.096,779.017 2501.998,752.344 2502.37,749.798C2502.772,747.05 2505.767,726.582 2505.323,715.197C2505.092,709.247 2500.043,703.072 2502.089,695.184C2504.241,686.89 2515.196,676.531 2527.695,676.931L2531.374,677.092C2533.104,676.983 2533.374,674.509 2532.817,674.149C2531.202,673.102 2528.356,672.394 2527.952,672.293C2515.979,669.314 2501.875,681.157 2500.051,682.688C2498.705,683.819 2489.193,691.805 2484.899,698.594C2480.681,705.263 2479.106,712.6 2478.885,713.477ZM2556.431,673.503C2556.518,674.651 2557.233,684.17 2556.731,687.887C2556.272,691.281 2555.699,691.171 2556.474,693.533C2558.036,698.291 2568.309,687.759 2568.553,673.269C2568.694,664.904 2564.211,663.584 2561.89,662.701C2559.165,661.664 2559.309,661.952 2556.582,661.654C2554.657,661.444 2554.585,661.189 2553.418,662.707C2552.638,663.723 2554.462,667.241 2554.648,667.6C2555.959,670.129 2555.609,670.132 2556.431,673.503ZM2941.423,983.293C2938.722,980.531 2938.629,980.928 2935.001,980.112C2927.949,978.527 2929.022,983.485 2929.82,984.117C2930.831,984.919 2935.947,985.327 2936.488,985.37C2940.251,985.67 2941.125,983.51 2941.423,983.293ZM2632.124,972.31C2638.978,980.45 2646.785,987.733 2648.137,988.995C2655.526,995.889 2676.066,1012.879 2684.136,1035.532C2692.197,1058.161 2692.145,1058.057 2698.752,1081.205C2699.775,1084.787 2699.21,1084.739 2700.128,1088.38C2700.232,1088.792 2701.162,1092.48 2704.411,1091.523C2707.779,1090.53 2706.244,1089.245 2707.304,1073.969C2708.446,1057.512 2703.827,1038.915 2703.089,1035.945C2702.472,1033.462 2696.002,1007.417 2693.877,1005.318C2692.197,1003.659 2667.066,996.979 2654.678,988.003C2650.091,984.679 2634.955,970.217 2634.595,970.26L2632.124,972.31ZM3023.364,1134.602L3018.043,1133.983C3017.751,1133.943 3015,1133.568 3014.366,1134.062C3014.145,1134.235 3012.282,1135.686 3014.163,1137.559C3015.047,1138.439 3026.027,1141.492 3026.841,1137.779C3027.338,1135.511 3025.248,1134.922 3024.98,1134.847L3023.364,1134.602ZM2692.957,859.203L2690.921,857.412C2690.408,857.394 2684.933,863.792 2684.439,864.37C2677.818,872.106 2671.877,884.165 2671.618,884.644C2668.555,890.32 2665.368,897.468 2668.869,903.446C2669.732,904.92 2669.175,905.497 2670.889,905.533C2672.78,905.572 2673.044,903.081 2673.074,902.803C2673.606,897.775 2673.354,897.966 2674.109,895.563C2677.109,886.018 2691.337,862.148 2692.957,859.203ZM2512.234,791.831L2512.358,790.67C2512.225,790.441 2502.033,787.362 2500.618,786.775C2498.062,785.714 2497.977,784.968 2495.541,786.471L2493.8,787.802L2495.543,789.309C2498.019,791.141 2509.235,794.043 2510.859,793.238L2512.234,791.831ZM2603.803,1392.768L2604.697,1394.596C2604.823,1394.938 2606.08,1398.356 2604.162,1399.109C2602.721,1399.675 2601.595,1398.131 2601.456,1397.941L2601.143,1396.691L2599.904,1393.762C2598.92,1392.962 2598.774,1394.767 2597.776,1393.957L2594.544,1396.706C2593.363,1398.069 2592.563,1399.887 2592.432,1400.185C2590.469,1404.645 2590.775,1439.65 2588.526,1445.526C2585.961,1452.223 2573.121,1447.471 2567.442,1443.144C2563.569,1440.194 2563.818,1440.138 2560.278,1436.726C2559.994,1436.452 2557.231,1433.788 2555.617,1435.111C2553.597,1436.767 2564.207,1456.398 2565.534,1459.936C2568.446,1467.697 2568.458,1467.431 2572.771,1478.042C2573.553,1479.964 2573.9,1479.714 2583.766,1501.541C2584.041,1502.151 2586.869,1508.407 2586.886,1509.293C2586.921,1511.177 2585.255,1511.544 2585.024,1511.595C2584.208,1511.774 2579.986,1510.837 2579.554,1510.741C2557.967,1505.947 2547.273,1500.798 2544.629,1499.525C2526.232,1490.668 2525.866,1491.76 2507.633,1482.79C2463.695,1461.175 2463.147,1462.39 2444.639,1450.375C2443.582,1449.689 2431.717,1441.987 2430.848,1442.741C2430.77,1442.809 2431.132,1442.783 2430.924,1444.033C2430.871,1444.348 2429.755,1445.746 2432.049,1447.285L2436.926,1451.071C2439.544,1452.866 2454.891,1465.201 2456.44,1466.447C2482.118,1487.087 2480.815,1488.65 2508.649,1506.263C2509.643,1506.892 2513.617,1510.609 2522.962,1513.971C2545.486,1522.074 2564.806,1529.966 2586.383,1530.457C2589.506,1530.528 2614.855,1531.105 2625.155,1525.789C2629.701,1523.443 2633.508,1513.531 2633.969,1512.33C2636.711,1505.191 2636.253,1505.181 2641.861,1481.858C2643.434,1475.318 2648.83,1448.403 2649.889,1443.643C2658.28,1405.932 2667.007,1342.93 2666.827,1339.706C2666.684,1337.149 2664.749,1336.948 2664.457,1336.917L2659.078,1338.684C2650.919,1342.444 2651.266,1342.742 2643.435,1347.483C2631.395,1354.773 2614.372,1361.023 2606.375,1381.724C2604.305,1387.083 2604.004,1386.925 2603.803,1392.768ZM2989.73,1182.787C2988.089,1181.894 2986.92,1180.76 2980.166,1180.722C2977.277,1180.705 2965.752,1180.64 2944.21,1177.32C2927.419,1174.733 2927.624,1173.584 2911.821,1173.556C2902.94,1173.54 2905.786,1182.274 2900.677,1186.039C2899.51,1186.899 2866.566,1200.702 2859.671,1204.012C2846.729,1210.224 2834.963,1213.666 2832.749,1214.314C2823.191,1217.111 2823.188,1217.449 2817.165,1225.315C2808.715,1236.349 2779.744,1253.154 2769.564,1257.684C2767.655,1258.533 2754.585,1265.003 2714.338,1279.273C2697.501,1285.242 2674.992,1290.64 2671.529,1291.47C2638.963,1299.279 2630.019,1305.088 2610.689,1312.231C2579.757,1323.662 2559.207,1309.719 2521.099,1282.18C2512.666,1276.085 2512.652,1276.519 2504.188,1270.393C2497.352,1265.445 2497.415,1265.726 2490.699,1260.444C2481.87,1253.5 2481.928,1253.733 2473.176,1246.442C2470.739,1244.413 2450.852,1228.905 2438.825,1220.389C2428.322,1212.951 2398.28,1190.157 2390.807,1183.208C2381.87,1174.899 2381.989,1174.384 2380.83,1174.568C2377.285,1175.132 2380.473,1179.02 2380.714,1179.314C2382.376,1181.341 2383.105,1180.584 2402.716,1203.59C2446.299,1254.719 2454.902,1258.341 2488.897,1284.625C2490.806,1286.101 2490.887,1285.946 2513.451,1302.139C2528.463,1312.914 2538.643,1317.205 2540.993,1318.196C2558.952,1325.767 2573.029,1333.825 2614.859,1326.007C2617.336,1325.544 2625.973,1324.234 2648.383,1318.153C2653.541,1316.754 2667.06,1313.909 2668.69,1313.566C2676.051,1312.017 2697.48,1305.086 2698.803,1304.711C2703.167,1303.475 2739.504,1290.636 2762.329,1278.777C2784.124,1267.453 2812.827,1251.15 2818.054,1246.886C2838.546,1230.171 2838.443,1230.048 2840.306,1229.036C2846.093,1225.889 2889.836,1205.82 2906.719,1193.285C2917.402,1185.354 2916.343,1181.048 2927.13,1183.182C2927.444,1183.244 2948.491,1189.543 2966.689,1187.569C2968.161,1187.409 2983.241,1185.774 2985.105,1185.752C2989.322,1185.702 2989.399,1183.137 2989.73,1182.787ZM2473.82,1603.916C2473.699,1605.135 2471.997,1608.579 2477.592,1612.249C2478.696,1612.972 2489.146,1620.667 2504.861,1625.375C2519.333,1629.711 2519.175,1629.899 2520.621,1629.858C2526.205,1629.698 2536.195,1611.206 2537.197,1609.35C2540.005,1604.154 2553.339,1574.943 2555.101,1569.489C2557.737,1561.328 2557.999,1561.573 2559.249,1553.009C2559.915,1548.447 2556.774,1545.99 2556.27,1545.596C2555.297,1544.835 2555.406,1545.063 2545.059,1541.987L2531.412,1538.18L2525.685,1536.461C2524.696,1536.153 2524.677,1536.517 2513.052,1533.604C2507.443,1532.199 2503.762,1538.402 2502.18,1540.637C2499.503,1544.418 2489.98,1566.429 2487.41,1571.324C2478.625,1588.055 2475.665,1598.048 2473.82,1603.916ZM2470.061,885.806C2468.955,885.124 2445.36,868.659 2437.131,868.353C2431.678,868.15 2432.743,872.24 2433.453,873.239C2435.57,876.217 2450.986,887.695 2452.571,888.874C2459.056,893.703 2458.384,894.225 2464.666,899.017C2466.72,900.584 2466.957,899.965 2478.931,900.682C2481.198,900.818 2495.449,904.362 2495.605,900.944C2495.714,898.571 2493.086,901.118 2470.061,885.806ZM3111.37,1013.858C3112.039,1013.858 3118.914,1013.853 3119.697,1013.031L3120.103,1010.725C3118.872,1007.607 3100.218,1008.392 3100.186,1013.967C3100.174,1015.911 3103.571,1015.122 3103.87,1015.053C3107.58,1014.192 3107.404,1014.207 3111.37,1013.858ZM2600.115,673.241C2598.959,677.708 2590.495,710.427 2588.786,729.788C2588.196,736.472 2593.325,735.72 2594.836,731.809C2595.715,729.536 2595.434,729.642 2603.064,702.486C2603.183,702.065 2611.042,671.687 2611.102,671.42C2612.227,666.402 2613.112,659.769 2613.248,658.75C2614.339,650.571 2614.75,650.405 2614.097,649.847C2612.648,648.61 2610.504,650.97 2610.286,651.21C2602.372,659.922 2601.186,668.663 2600.115,673.241ZM2307.407,1794.626C2293.013,1791.873 2293.259,1791.3 2278.727,1788.676C2262.211,1785.693 2261.916,1785.02 2260.888,1786.079C2258.854,1788.174 2261.779,1789.861 2262.064,1790.025L2264.13,1791.376C2264.299,1791.497 2287.969,1802.969 2290.043,1803.974C2292.474,1805.152 2309.822,1813.56 2321.305,1816.731C2331.997,1819.684 2347.779,1828.588 2358.317,1813.657C2371.94,1794.354 2378.052,1775.533 2386.862,1753.419C2391.292,1742.301 2391.606,1742.539 2400.535,1724.103C2404.574,1715.763 2420.974,1689.573 2426.07,1671.273C2429.828,1657.777 2410.525,1647.45 2386.175,1621.147C2365.345,1598.647 2355.039,1582.634 2349.208,1574.304C2329.778,1546.544 2334.572,1543.635 2332.033,1542.208C2331.827,1542.092 2330.002,1541.067 2329.074,1542.348C2327.956,1543.895 2334.812,1557.056 2337.098,1571.428C2339.7,1587.782 2345.775,1609.886 2349.053,1627.882C2351.467,1641.136 2352.503,1666.641 2352.152,1673.197C2349.576,1721.253 2341.665,1736.172 2333.419,1749.239C2332.886,1750.083 2329.655,1755.203 2324.056,1757.497C2312.467,1762.245 2301.644,1758.4 2300.41,1758.386C2298.152,1758.359 2297.653,1758.368 2297.592,1760.728C2297.555,1762.137 2309.674,1768.539 2317.234,1776.388C2318.383,1777.581 2329.577,1789.203 2329.038,1793.405C2328.668,1796.283 2325.367,1796.536 2324.956,1796.567C2322.438,1796.76 2308.805,1794.825 2307.407,1794.626ZM3041.645,1068.675C3025.789,1066.733 3023.85,1064.581 3023.346,1068.525C3022.986,1071.348 3031.37,1074.63 3032.184,1074.948C3033.953,1075.641 3053.18,1083.168 3055.009,1081.505C3056.344,1080.292 3056.058,1077.835 3056.02,1077.508C3055.269,1071.054 3042.975,1068.907 3041.645,1068.675ZM3098.724,1033.399L3101.557,1035.804C3102.33,1036.712 3102.232,1038.029 3106.922,1038.518C3107.519,1038.58 3112.008,1039.049 3114.407,1038.121C3117.621,1036.877 3117.983,1027.719 3116.271,1025.797C3115.198,1024.592 3109.026,1025.101 3108.396,1025.153C3104.584,1024.848 3104.69,1024.358 3101.073,1025.394C3096.034,1026.837 3097.897,1031.816 3098.11,1032.385L3098.724,1033.399Z"/></g></g><g transform="matrix(0.785098,0,0,1.806593,680.822724,-1900.629583)"><g transform="matrix(1,0,0,1,899,1544)"><path d="M408.681,189.471C425.919,182.699 507.034,181.501 529.972,189.357L528.006,190.71C525.823,191.451 505.088,188.568 487.483,192.17L489.054,193.725C494.235,196.044 508.624,196.644 510.343,196.716L511.179,198.692C504.288,202.071 484.325,198.601 482.108,198.259C449.232,193.175 449.298,194.145 416.166,191.071C415.554,191.083 409.335,191.205 408.681,189.471Z"/></g><g transform="matrix(1,0,0,1,899,1544)"><path d="M491.955,218.387C536.614,229.881 540.178,232.712 536.712,234.266C533.514,235.7 474.267,227.425 468.857,226.669C432.989,221.66 434.329,214.493 435.937,214.222C452.748,211.39 487.531,217.598 491.955,218.387Z"/></g><g transform="matrix(1,0,0,1,899,1544)"><path d="M551.795,214.507C541.036,211.585 541.154,212.091 530.304,209.26C517.738,205.98 549.178,206.452 550.835,206.477C571.393,206.785 610.326,212.153 625.03,221.296C624.697,221.334 620.866,221.764 620.866,221.764C591.979,219.553 583.924,222.325 551.795,214.507Z"/></g><g transform="matrix(1,0,0,1,899,1544)"><path d="M589.204,129.666C567.249,125.786 561.239,127.565 554.23,126.344C553.854,126.278 553.894,126.233 549.695,124.851C555.09,123.355 607.545,117.926 654.142,123.543C653.735,123.673 649.051,125.162 649.051,125.162C622.048,129.954 601.711,130.811 589.204,129.666Z"/></g><g transform="matrix(1,0,0,1,899,1544)"><path d="M669.79,249.247C671.975,249.705 689.605,250.892 713.005,265.948C726.126,274.39 650.421,253.4 625.967,241.429C626.508,241.482 628.508,241.293 632.638,242.076C641.736,243.8 641.576,243.699 650.671,245.657C655.375,246.669 655.27,246.521 669.79,249.247Z"/></g><g transform="matrix(1,0,0,1,899,1544)"><path d="M540.029,249.319C543.228,250.304 557.092,254.572 578.457,265.878C585.689,269.705 568.62,267.742 548.149,260.487C529.859,254.004 529.824,254.243 512.982,244.464C513.932,244.516 514.886,244.417 515.836,244.469C516.301,244.495 516.757,244.612 517.216,244.695C519.698,245.145 538.205,248.944 540.029,249.319Z"/></g><path d="M1191.657,1697.734L1200.089,1696.196C1221.371,1692.562 1279.009,1692.057 1279.121,1695.518C1279.264,1699.961 1229.21,1701.013 1233.259,1706.686C1233.764,1707.394 1258.823,1708.037 1261.048,1708.094C1268.378,1708.282 1302.735,1705.637 1299.542,1700.69C1297.037,1696.809 1287.42,1698.567 1278.588,1699.766L1282.654,1697.45C1284.007,1696.768 1284.281,1697.726 1300.861,1692.224C1302.04,1691.833 1357.277,1682.46 1380.941,1683.672C1398.883,1684.592 1398.851,1682.294 1417.096,1684.968C1415.867,1685.515 1415.943,1686.378 1410.92,1687.721C1375.587,1697.171 1328.772,1697.078 1338.125,1702.638C1346.271,1707.48 1378.873,1700.214 1407.525,1705.093C1421.518,1707.475 1462.078,1710.065 1477.941,1717.275L1475.864,1718.401C1471.958,1719.421 1440.277,1721.507 1437.178,1721.711C1402.764,1723.977 1390.103,1718.051 1386.403,1716.32C1386.613,1716.163 1389.022,1714.352 1389.022,1714.352C1389.819,1714.041 1389.802,1714.208 1399.543,1712.407L1397.983,1710.636C1396.105,1709.009 1395.23,1714.527 1367.118,1707.159C1356.621,1704.408 1346.653,1713.332 1340.249,1714.095C1265.246,1723.032 1210.66,1702.386 1215.122,1711.601C1215.867,1713.139 1221.501,1710.226 1233.584,1714.293C1253.322,1720.936 1348.257,1721.852 1349.036,1722.619C1353.978,1727.488 1333.037,1720.042 1310.385,1729.144C1306.542,1730.688 1287.7,1729.804 1274.146,1731.92C1279.792,1733.058 1279.58,1733.55 1287.221,1734.556C1310.793,1737.66 1307.848,1744.456 1306.349,1745.374C1300.158,1749.169 1266.405,1742.63 1244.527,1743.104C1248.579,1744.708 1248.235,1745.212 1255.123,1747.297C1261.574,1749.249 1267.253,1753.972 1268.177,1754.741C1265.249,1754.663 1265.324,1755.616 1258.23,1754.475C1241.063,1751.716 1223.797,1752.7 1192.181,1747.41C1191.23,1747.25 1174.936,1744.524 1180.689,1751.04C1185.727,1756.746 1190.686,1752.924 1204.651,1756.845C1207.998,1757.785 1242.948,1767.598 1247.283,1765.271C1255.634,1760.789 1282.009,1770.334 1285.094,1770.503C1321.378,1772.494 1369.39,1794.693 1358.896,1798.639C1354.143,1800.426 1302.179,1777.388 1292.065,1781.644C1298.093,1784.377 1304.2,1784.526 1311.268,1788.71C1321.123,1794.542 1300.114,1789.926 1299.165,1789.718C1291.421,1791.752 1271.235,1785.767 1257.489,1783.85C1260.117,1785.2 1259.875,1785.513 1267.268,1788.873C1280.365,1794.826 1280.675,1794.319 1290.813,1804.664L1288.514,1804.169C1234.133,1780.514 1234.562,1779.909 1226.843,1774.679C1227.357,1774.65 1229.211,1773.878 1233.236,1774.32C1244.016,1775.502 1247.454,1771.987 1245.868,1771.571C1226.797,1766.57 1186.551,1770.126 1135.697,1750.136C1126.318,1746.449 1124.122,1746.943 1123.487,1746.864L1125.052,1749.233C1131.698,1755.207 1188.767,1767.428 1205.49,1777.699C1205.149,1777.765 1201.23,1778.531 1201.23,1778.531C1198.276,1778.582 1092.493,1743.26 1052.146,1737.119C1044.502,1735.956 1040.717,1737.043 1042.612,1729.496C1044.848,1720.59 1041.402,1716.7 1050.603,1715.592C1085.371,1711.403 1123.169,1696.405 1158.79,1690.326C1158.671,1690.41 1156.708,1692.34 1153.498,1694.071C1147.242,1697.444 1118.789,1702.626 1096.703,1710.383C1102.229,1710.029 1103.723,1710.134 1121.518,1707.309C1122.784,1707.108 1162.038,1698.127 1163.774,1697.063C1184.15,1684.563 1205.822,1686.373 1209.565,1686.685C1224.443,1687.928 1229.502,1680.889 1242.853,1677.602C1262.709,1672.714 1344.848,1647.549 1336.171,1658.388C1335.664,1659.02 1293.508,1672.416 1289.786,1673.599C1289.786,1673.599 1286.097,1675.379 1285.777,1675.534C1306.982,1677.404 1307.153,1672.672 1326.25,1676.383L1324.29,1678.206C1323.361,1678.714 1323.295,1678.492 1259.557,1686.216C1242.74,1688.254 1237.386,1684.995 1218.885,1689.297C1216.13,1689.938 1216.205,1690.253 1213.715,1689.282C1212.613,1688.852 1199.819,1693.702 1191.657,1697.734ZM1189.724,1698.718C1185.694,1700.84 1185.785,1701.722 1184.904,1702.395C1185.377,1702.35 1190.817,1701.837 1190.817,1701.837C1208.352,1698.296 1230.543,1699.801 1246.272,1699.391L1247.327,1699.162L1248.383,1698.933C1248.271,1698.785 1250.193,1697.381 1250.089,1697.245C1249.803,1696.871 1210.611,1696.598 1205.877,1697.255C1203.436,1697.594 1191.132,1698.686 1189.724,1698.718ZM1178.394,1738.562L1180.665,1738.972C1189.451,1735.982 1207.784,1738.246 1221.225,1736.384L1219.153,1734.813C1202.407,1727.142 1173.306,1727.525 1169.274,1727.578C1166.263,1727.618 1163.978,1728.608 1163.927,1728.618C1165.094,1729.399 1176.812,1737.245 1178.394,1738.562Z"/><g transform="matrix(1,0,0,1,899,1544)"><path d="M488.915,301.42C515.985,319.126 517.122,322.052 514.489,322.198C513.168,322.271 490.849,311.153 488.818,310.142C470.217,300.876 459.835,290.372 457.693,288.205C460.843,288.728 461.082,288.135 471.898,292.933C473.289,293.55 473.158,293.562 488.915,301.42Z"/></g><g transform="matrix(1,0,0,1,899,1544)"><path d="M626.758,301.282C651.668,313.97 653.026,316.92 654.381,317.946C653.913,317.933 652.586,318.527 649.442,317.804C638.124,315.203 595.244,292.729 589.757,290.109C587.039,288.811 585.409,287.126 585.328,287.07C586.518,287.198 587.729,287.013 588.919,287.14C590.301,287.288 591.72,287.403 593.02,287.894C610.089,294.336 609.965,294.133 626.758,301.282Z"/></g><g transform="matrix(1,0,0,1,899,1544)"><path d="M539.714,108.56C542.4,108.305 570.747,105.62 573.347,106.199C584.797,108.752 548.656,113.172 546.443,113.443C543.818,113.764 516.691,117.081 513.563,116.842C513.258,116.818 513.29,116.766 509.873,115.826C511.49,115.27 513.555,113.117 539.714,108.56Z"/></g><g transform="matrix(1,0,0,1,899,1544)"><path d="M434.444,268.29C409.76,257.886 409.141,255.445 407.581,254.393C408.598,254.345 409.597,254.076 410.613,254.028C411.073,254.006 411.53,254.123 411.986,254.185C431.743,256.88 451.355,269.587 454.435,271.583C465.222,278.573 435.981,268.803 434.444,268.29Z"/></g><g transform="matrix(1,0,0,1,899,1544)"><path d="M544.315,307.378C575.953,323.839 576.783,328.7 573.908,328.319C573.042,328.205 551.608,317.794 538.737,310.855C526.115,304.05 526.518,303.769 523.126,300.9C526.565,301.593 526.7,300.758 544.315,307.378Z"/></g><g transform="matrix(1,0,0,1,899,1544)"><path d="M752.753,185.335C740.339,184.12 727.326,183.775 726.45,183.255C723.053,181.241 727.273,176.859 775.759,180.897C781.467,181.373 781.232,181.852 785.012,182.512C784.554,182.586 781.79,184.208 752.753,185.335Z"/></g><g transform="matrix(1,0,0,1,899,1544)"><path d="M672.228,156.506C669.793,156.47 636.175,155.98 641.956,153.343C645.3,151.818 669.722,152.319 672.137,152.369C687.886,152.692 687.733,152.531 703.499,154.519C699.197,155.075 699.386,155.854 672.228,156.506Z"/></g><g transform="matrix(1,0,0,1,899,1544)"><path d="M636.093,193.083C650.581,196.205 652.141,197.289 656.386,198.833C653.533,198.85 653.589,199.529 645.542,198.896C615.123,196.503 607.676,193.967 604.537,192.898C604.853,192.768 608.477,191.274 608.477,191.274C612.065,190.599 633.891,192.855 636.093,193.083Z"/></g><g transform="matrix(1,0,0,1,899,1544)"><path d="M664.242,81.553C647.959,83.87 648.149,83.998 631.938,87.094C623.522,88.701 623.691,88.281 621.255,88.632C644.176,80.224 693.348,71.116 688.771,78.425C687.722,80.101 687.148,78.589 664.242,81.553Z"/></g><g transform="matrix(1,0,0,1,899,1544)"><path d="M413.964,194.596C414.589,194.469 415.115,194.013 415.739,193.886C416.27,193.779 416.833,193.8 417.363,193.907C431.339,196.709 441.629,195.569 458.417,201.378C458.941,201.559 460.251,205.444 454.54,204.51C423.96,199.511 418.257,197.916 413.964,194.596Z"/></g><g transform="matrix(1,0,0,1,899,1544)"><path d="M484.035,135.636C523.095,127.432 527.218,128.038 530.975,128.59L528.902,130.123C525.222,132.039 490.896,136.349 487.574,136.766C485.494,137.027 485.786,136.562 484.035,135.636Z"/></g><g transform="matrix(1,0,0,1,899,1544)"><path d="M317.431,131.558C290.524,138.989 287.999,139.538 289.192,137.56C289.523,137.01 305.644,128.119 331.55,125.474C324.727,129.396 324.729,129.02 317.431,131.558Z"/></g><g transform="matrix(1,0,0,1,899,1544)"><path d="M466.428,106.665C468.786,105.955 495.121,98.025 496.169,98.77C496.274,98.844 488.376,107.096 452.638,112.33C456.739,110.646 456.347,110.159 466.428,106.665Z"/></g><g transform="matrix(1,0,0,1,899,1544)"><path d="M358.375,119.591C363.802,119.085 363.641,119.841 366.165,119.961C364.509,120.854 347.288,130.148 343.586,126.549C340.625,123.67 357.1,119.883 358.375,119.591Z"/></g><g transform="matrix(1,0,0,1,899,1544)"><path d="M706.384,234.55C714.38,237.39 714.302,237.134 721.648,241.219C721.25,241.221 716.673,241.25 716.673,241.25C712.857,240.694 698.113,235.579 697.479,235.153C690.109,230.207 705.695,234.366 706.384,234.55Z"/></g><g transform="matrix(1,0,0,1,899,1544)"><path d="M717.163,337.762C725.209,342.742 724.567,343.251 726.262,344.733C707.744,340.567 705.06,333.598 705.305,333.396C706.345,332.543 716.252,337.323 717.163,337.762Z"/></g><g transform="matrix(1,0,0,1,899,1544)"><path d="M484.85,257.772C485.28,257.977 491.466,260.944 488.702,262.305C488.187,262.559 474.879,258.016 475.209,256.506C475.654,254.477 484.118,257.509 484.85,257.772Z"/></g><g transform="matrix(1,0,0,1,899,1544)"><path d="M732.2,104.694L738.87,104.945C739.702,105.218 738.716,111.381 724.468,107.56C714.312,104.837 731.54,104.7 732.2,104.694Z"/></g><g transform="matrix(1,0,0,1,899,1544)"><path d="M394.369,218.067C386.214,211.792 402.676,215.49 403.86,218.586C404.951,221.438 395.094,218.298 394.369,218.067Z"/></g><g transform="matrix(1,0,0,1,899,1544)"><path d="M814.119,318.365C808.641,313.396 809.189,313.05 807.59,311.327C814.147,314.541 814.302,313.98 819.85,318.617C825.681,323.49 825.259,323.862 826.788,325.344C820.164,322.371 820.266,322.523 814.119,318.365Z"/></g><g transform="matrix(1,0,0,1,899,1544)"><path d="M800.011,175.939C794.272,175.527 793.241,176.417 793.448,174.492C793.876,170.514 804.09,174.22 804.955,174.534C804.56,174.647 800.011,175.939 800.011,175.939Z"/></g><g transform="matrix(1,0,0,1,899,1544)"><path d="M825.484,185.669C835.186,188.693 834.949,189.379 837.576,190.409C835.809,190.227 835.314,190.666 828.536,189.478C818.505,187.721 817.924,186.776 815.419,186.138C818.642,185.988 818.448,185.431 825.484,185.669Z"/></g><g transform="matrix(1,0,0,1,899,1544)"><path d="M773.103,273.928C775.666,275.915 776.617,277.871 776.767,278.038C775.885,277.759 766.209,274.69 766.624,272.502C767.22,269.358 768.438,271.602 773.103,273.928Z"/></g><g transform="matrix(1,0,0,1,899,1544)"><path d="M489.924,245.844C489.924,245.844 487.227,243.912 486.993,243.744C487.746,243.566 493.758,242.148 496.659,243.364C496.659,243.364 499.705,245.446 499.97,245.627C499.496,245.664 497.66,246.606 489.924,245.844Z"/></g><g transform="matrix(1,0,0,1,899,1544)"><path d="M458.604,129.444C458.899,129.477 462.855,129.909 461.758,131.397C460.716,132.811 453.488,132.81 451.903,132.428C443.478,130.398 458.018,129.481 458.604,129.444Z"/></g><g transform="matrix(1,0,0,1,899,1544)"><path d="M770.066,108.687C770.066,108.687 774.184,110.723 774.543,110.9C763.577,111.721 763.359,110.466 763.473,109.582C763.79,107.125 764.896,108.447 770.066,108.687Z"/></g><g transform="matrix(1,0,0,1,899,1544)"><path d="M593.646,241.727C597.202,244.028 602.039,244.322 597.85,245.518C592.313,247.099 588.747,239.095 593.646,241.727Z"/></g><g transform="matrix(1,0,0,1,899,1544)"><path d="M427.871,274.441C432.77,282.316 416.928,270.926 421.906,270.911C422.46,270.91 422.342,271.17 427.871,274.441Z"/></g><g transform="matrix(1,0,0,1,899,1544)"><path d="M604.741,155.056C605.585,155.077 605.508,155.206 615.093,157.081C613.523,157.247 613.189,157.775 607.081,157.927C606.253,157.947 606.323,157.809 596.851,156.339C598.362,156.093 598.737,155.52 604.741,155.056Z"/></g><g transform="matrix(1,0,0,1,899,1544)"><path d="M491.44,285.017C487.449,278.675 495.949,283.177 496.963,284.616C497.021,284.698 496.505,288.212 491.44,285.017Z"/></g><g transform="matrix(1,0,0,1,899,1544)"><path d="M572.465,156.294C572.863,156.302 572.828,156.355 577.369,157.117L573.986,158.647C573.494,158.786 573.513,158.673 567.598,159.005C567.988,158.788 572.465,156.294 572.465,156.294Z"/></g><g transform="matrix(1,0,0,1,899,1544)"><path d="M637.115,220.449C637.408,220.538 637.371,220.572 640.562,222.104C640.155,222.198 635.47,223.28 635.47,223.28C635.212,223.237 631.947,221.33 637.115,220.449Z"/></g><g transform="matrix(1,0,0,1,899,1544)"><path d="M510.343,196.716C511.868,197.265 512.416,197.593 511.179,198.692L510.343,196.716Z"/></g></g></g></g><g><path d="M-17300.339,4229.092C-17300.339,4229.092 -17598.735,4504.223 -17183.488,4715.328C-16663.722,4979.569 -15614.017,4615.548 -15614.017,4615.548C-15614.017,4615.548 -16096.375,4752.437 -16688.762,4702.321C-17585.275,4626.474 -17300.339,4229.092 -17300.339,4229.092Z"/><path d="M-17430.552,4578.896C-17430.552,4578.896 -17459.511,4801.954 -17007.908,4897.539C-16538.503,4996.891 -16083.488,4796.224 -16083.488,4796.224C-16083.488,4796.224 -16562.844,4946.607 -17032.725,4846.583C-17413.521,4765.523 -17430.552,4578.896 -17430.552,4578.896Z"/></g></g></g></g></g></svg>