<?xml version="1.0" encoding="UTF-8" standalone="no"?><!DOCTYPE svg PUBLIC "-//W3C//DTD SVG 1.1//EN" "http://www.w3.org/Graphics/SVG/1.1/DTD/svg11.dtd"><svg width="100%" height="100%" viewBox="0 0 800 140" version="1.1" xmlns="http://www.w3.org/2000/svg" xmlns:xlink="http://www.w3.org/1999/xlink" xml:space="preserve" xmlns:serif="http://www.serif.com/" style="fill-rule:evenodd;clip-rule:evenodd;stroke-linejoin:round;stroke-miterlimit:2;"><g transform="matrix(1,0,0,1,0,-2319)"><g id="name" transform="matrix(1.09589,0,0,0.191781,-2562.155195,1279.164384)"><rect x="2337.967" y="5422" width="730" height="730" style="fill:none;"/><clipPath id="_clip1"><rect x="2337.967" y="5422" width="730" height="730"/></clipPath><g clip-path="url(#_clip1)"><g transform="matrix(0.170333,0,0,0.971342,5198.621395,1496.708713)"><g transform="matrix(1,0,0,0.991657,0,33.715919)"><g><g transform="matrix(1,0,0,1,-478.884262,-661.203735)"><g transform="matrix(1,0,0,1,-7439.110107,-2690.086396)"><path d="M-6484.902,7400.023L-6406.026,7400.023L-6303.959,7669.503L-6096.554,7400.023L-5921.199,7400.023L-6030.491,7959.207L-6201.88,7959.207L-6150.687,7697.284L-6273.256,7852.37L-6401.267,7852.37L-6464.872,7693.128L-6516.877,7959.207L-6688.266,7959.207L-6612.611,7572.124L-6484.902,7400.023Z" style="fill:url(#_Linear2);"/></g><g transform="matrix(1,0,0,1,-7412.003807,-2690.086396)"><path d="M-5958.687,7959.207L-5849.395,7400.023L-5374.015,7400.023L-5399.782,7531.86L-5703.773,7531.86L-5719.022,7609.881L-5479.883,7609.881L-5505.65,7741.718L-5744.79,7741.718L-5761.53,7827.37L-5457.539,7827.37L-5483.307,7959.207L-5958.687,7959.207Z" style="fill:url(#_Linear3);"/></g><g transform="matrix(1,0,0,1,-7353.008935,-2690.086396)"><path d="M-4906.349,7697.284L-5028.918,7852.37L-5156.929,7852.37L-5220.534,7693.128L-5272.539,7959.207L-5443.928,7959.207L-5334.636,7400.023L-5161.688,7400.023L-5059.622,7669.503L-4852.216,7400.023L-4676.861,7400.023L-4786.153,7959.207L-4957.542,7959.207L-4906.349,7697.284Z" style="fill:url(#_Linear4);"/></g></g><g><g transform="matrix(16.313203,0,0,15.356867,-120791.403219,-55038.063507)"><path d="M6405.506,3847.581C6405.885,3847.581 6407.781,3847.583 6409.674,3848.119C6411.025,3848.501 6412.363,3849.161 6413.229,3850.223C6414.102,3851.293 6414.496,3852.763 6414.617,3854.197C6414.787,3856.201 6414.438,3858.109 6414.368,3858.49L6413.454,3863.459C6413.323,3864.168 6412.402,3869.003 6409.424,3871.518C6406.46,3874.022 6401.643,3874.056 6400.935,3874.056L6389.639,3874.056L6387.811,3883.994L6377.305,3883.994L6384.004,3847.581L6405.506,3847.581ZM6403.919,3858.178C6404.034,3857.557 6403.984,3857.118 6403.801,3856.814C6403.605,3856.49 6403.277,3856.347 6402.993,3856.266C6402.638,3856.165 6402.324,3856.166 6402.238,3856.166L6392.931,3856.166L6391.219,3865.471L6400.227,3865.471C6400.517,3865.471 6402.575,3865.485 6403.005,3863.147L6403.919,3858.178Z" style="fill:rgb(14,49,88);"/></g><g transform="matrix(16.313203,0,0,15.356867,-120744.872968,-55038.063507)"><path d="M6460.948,3875.409L6479.085,3875.409L6477.506,3883.994L6448.862,3883.994L6455.561,3847.581L6466.068,3847.581L6460.948,3875.409Z" style="fill:rgb(14,49,88);"/></g><g transform="matrix(16.313203,0,0,15.356867,-120719.295096,-55038.063507)"><path d="M6486.816,3847.581L6491.61,3863.493L6502.26,3847.581L6513.619,3847.581L6494.938,3874.324L6493.159,3883.994L6482.653,3883.994L6484.483,3874.048L6475.734,3847.581L6486.816,3847.581Z" style="fill:rgb(14,49,88);"/></g><g transform="matrix(1,0,0,1,-1376.27469,-3396.363785)"><path d="M-14488.204,7437.465L-14314.938,7437.465C-14308.754,7437.465 -14277.83,7437.497 -14246.952,7445.715C-14224.906,7451.583 -14203.084,7461.726 -14188.955,7478.026C-14174.708,7494.462 -14168.291,7517.041 -14166.309,7539.058C-14163.539,7569.833 -14169.229,7599.137 -14170.372,7604.987L-14218.1,7849.186C-14220.229,7860.075 -14235.259,7934.322 -14283.84,7972.948C-14332.194,8011.394 -14410.765,8011.912 -14422.327,8011.912L-14595.593,8011.912C-14601.777,8011.912 -14632.702,8011.881 -14663.579,8003.662C-14685.625,7997.794 -14707.447,7987.652 -14721.577,7971.351C-14735.823,7954.916 -14742.24,7932.336 -14744.222,7910.32C-14746.993,7879.544 -14741.303,7850.241 -14740.159,7844.39L-14692.431,7600.192C-14690.303,7589.303 -14675.272,7515.056 -14626.691,7476.429C-14578.337,7437.983 -14499.766,7437.465 -14488.204,7437.465ZM-14368.245,7569.302L-14476.659,7569.302C-14481.387,7569.302 -14514.963,7569.088 -14521.979,7604.987L-14569.708,7849.186C-14571.57,7858.716 -14570.77,7865.453 -14567.776,7870.123C-14564.58,7875.106 -14559.226,7877.295 -14554.59,7878.54C-14548.81,7880.094 -14543.677,7880.075 -14542.286,7880.075L-14433.872,7880.075C-14429.144,7880.075 -14395.568,7880.289 -14388.552,7844.39L-14340.824,7600.192C-14338.961,7590.661 -14339.761,7583.924 -14342.756,7579.254C-14345.951,7574.271 -14351.305,7572.083 -14355.941,7570.837C-14361.721,7569.284 -14366.854,7569.302 -14368.245,7569.302Z" style="fill:rgb(14,49,88);"/></g></g></g></g><g transform="matrix(0.241936,0,0,0.240483,-13073.758013,3597.815176)"><path d="M-15205.059,4822.329L-15232.104,4958.054L-15378.954,4958.054L-15275.12,4438.888L-15055.587,4438.888C-14988.342,4438.888 -14936.426,4453.474 -14899.837,4482.646C-14863.248,4511.818 -14844.954,4552.857 -14844.954,4605.763C-14844.954,4649.274 -14855.337,4687.346 -14876.104,4719.979C-14896.87,4752.613 -14926.537,4777.829 -14965.104,4795.629C-15003.67,4813.429 -15049.159,4822.329 -15101.57,4822.329L-15205.059,4822.329ZM-15182.264,4706.629L-15094.895,4706.629C-15062.756,4706.629 -15037.787,4698.966 -15019.987,4683.638C-15002.187,4668.31 -14993.287,4646.554 -14993.287,4618.371C-14993.287,4596.616 -15000.456,4580.546 -15014.795,4570.163C-15029.134,4559.779 -15049.159,4554.588 -15074.87,4554.588L-15151.855,4554.588L-15182.264,4706.629ZM-14551.995,4968.438C-14605.395,4968.438 -14651.379,4958.673 -14689.945,4939.142C-14728.512,4919.611 -14758.179,4892.788 -14778.945,4858.671C-14799.712,4824.554 -14810.095,4784.999 -14810.095,4740.004C-14810.095,4694.516 -14802.184,4652.859 -14786.362,4615.034C-14770.54,4577.209 -14748.29,4544.328 -14719.612,4516.392C-14690.934,4488.456 -14656.694,4466.824 -14616.891,4451.496C-14577.088,4436.168 -14533.454,4428.504 -14485.987,4428.504C-14432.587,4428.504 -14386.604,4438.27 -14348.037,4457.8C-14309.47,4477.331 -14279.804,4504.154 -14259.037,4538.271C-14238.27,4572.388 -14227.887,4611.943 -14227.887,4656.938C-14227.887,4702.427 -14235.798,4744.084 -14251.62,4781.909C-14267.442,4819.734 -14289.692,4852.614 -14318.37,4880.55C-14347.048,4908.486 -14381.288,4930.118 -14421.091,4945.446C-14460.894,4960.774 -14504.529,4968.438 -14551.995,4968.438ZM-14539.387,4846.804C-14513.676,4846.804 -14490.808,4842.107 -14470.783,4832.713C-14450.758,4823.318 -14433.699,4810.092 -14419.608,4793.034C-14405.516,4775.975 -14394.762,4756.568 -14387.345,4734.813C-14379.929,4713.057 -14376.22,4690.066 -14376.22,4665.838C-14376.22,4642.599 -14381.041,4622.327 -14390.683,4605.021C-14400.324,4587.716 -14414.169,4574.242 -14432.216,4564.6C-14450.263,4554.959 -14472.39,4550.138 -14498.595,4550.138C-14523.812,4550.138 -14546.556,4554.835 -14566.829,4564.229C-14587.101,4573.624 -14604.283,4586.85 -14618.374,4603.909C-14632.466,4620.967 -14643.22,4640.374 -14650.637,4662.129C-14658.054,4683.885 -14661.762,4706.877 -14661.762,4731.104C-14661.762,4753.849 -14656.941,4773.998 -14647.299,4791.55C-14637.658,4809.103 -14623.813,4822.7 -14605.766,4832.342C-14587.719,4841.984 -14565.592,4846.804 -14539.387,4846.804ZM-14204.895,4958.054L-14101.062,4438.888L-13954.212,4438.888L-14034.312,4841.613L-13786.595,4841.613L-13810.329,4958.054L-14204.895,4958.054ZM-13752.479,4958.054L-13648.645,4438.888L-13501.795,4438.888L-13605.629,4958.054L-13752.479,4958.054ZM-13253.337,4968.438C-13305.254,4968.438 -13348.641,4958.425 -13383.499,4938.4C-13418.358,4918.375 -13442.956,4890.192 -13457.295,4853.85C-13471.634,4817.509 -13474.106,4775.11 -13464.712,4726.654L-13406.862,4438.888L-13260.012,4438.888L-13317.12,4724.429C-13325.526,4765.963 -13322.312,4796.742 -13307.479,4816.767C-13292.645,4836.792 -13268.665,4846.804 -13235.537,4846.804C-13204.881,4846.804 -13180.406,4837.41 -13162.112,4818.621C-13143.817,4799.832 -13130.22,4768.435 -13121.32,4724.429L-13064.212,4438.888L-12919.587,4438.888L-12978.179,4733.329C-12993.506,4810.463 -13024.162,4868.931 -13070.145,4908.734C-13116.129,4948.536 -13177.192,4968.438 -13253.337,4968.438ZM-12754.149,4820.104L-12781.637,4958.054L-12928.487,4958.054L-12824.654,4438.888L-12602.895,4438.888C-12536.145,4438.888 -12484.599,4453.474 -12448.258,4482.646C-12411.916,4511.818 -12393.745,4552.363 -12393.745,4604.279C-12393.745,4647.791 -12404.252,4685.739 -12425.266,4718.125C-12446.28,4750.511 -12476.07,4775.604 -12514.637,4793.404C-12522.07,4796.835 -12529.76,4799.935 -12537.707,4802.704L-12449.37,4958.054L-12602.895,4958.054L-12680.255,4820.104L-12754.149,4820.104ZM-12731.624,4706.629L-12644.429,4706.629C-12611.795,4706.629 -12586.579,4698.966 -12568.779,4683.638C-12550.979,4668.31 -12542.079,4646.554 -12542.079,4618.371C-12542.079,4596.616 -12549.248,4580.546 -12563.587,4570.163C-12577.926,4559.779 -12597.951,4554.588 -12623.662,4554.588L-12700.826,4554.588L-12731.624,4706.629ZM-12193.243,4749.646L-12212.037,4844.579L-11939.845,4844.579L-11963.579,4958.054L-12379.654,4958.054L-12275.82,4438.888L-11869.387,4438.888L-11892.379,4552.363L-12154.187,4552.363L-12171.513,4639.879L-11940.587,4639.879L-11962.095,4749.646L-12193.243,4749.646ZM-11771.487,4958.054L-11690.645,4555.329L-11850.104,4555.329L-11826.37,4438.888L-11361.345,4438.888L-11385.079,4555.329L-11543.795,4555.329L-11624.637,4958.054L-11771.487,4958.054ZM-11283.624,4857.188L-11343.545,4958.054L-11498.554,4958.054L-11165.545,4438.888L-11020.92,4438.888L-10895.579,4958.054L-11041.687,4958.054L-11062.493,4857.188L-11283.624,4857.188ZM-11084.828,4748.904L-11119.485,4580.887L-11219.298,4748.904L-11084.828,4748.904ZM-10652.586,4673.273L-10709.42,4958.054L-10853.304,4958.054L-10749.47,4438.888L-10628.579,4438.888L-10456.828,4722.913L-10400.145,4438.888L-10256.262,4438.888L-10360.095,4958.054L-10480.987,4958.054L-10652.586,4673.273ZM-9975.17,4968.438C-10028.57,4968.438 -10074.554,4958.673 -10113.12,4939.142C-10151.687,4919.611 -10181.354,4892.788 -10202.12,4858.671C-10222.887,4824.554 -10233.27,4784.999 -10233.27,4740.004C-10233.27,4694.516 -10225.359,4652.859 -10209.537,4615.034C-10193.715,4577.209 -10171.465,4544.328 -10142.787,4516.392C-10114.109,4488.456 -10079.869,4466.824 -10040.066,4451.496C-10000.263,4436.168 -9956.629,4428.504 -9909.162,4428.504C-9855.762,4428.504 -9809.779,4438.27 -9771.212,4457.8C-9732.645,4477.331 -9702.979,4504.154 -9682.212,4538.271C-9661.445,4572.388 -9651.062,4611.943 -9651.062,4656.938C-9651.062,4702.427 -9658.973,4744.084 -9674.795,4781.909C-9690.617,4819.734 -9712.867,4852.614 -9741.545,4880.55C-9770.223,4908.486 -9804.463,4930.118 -9844.266,4945.446C-9884.069,4960.774 -9927.704,4968.438 -9975.17,4968.438ZM-9962.562,4846.804C-9936.851,4846.804 -9913.983,4842.107 -9893.958,4832.713C-9873.933,4823.318 -9856.874,4810.092 -9842.783,4793.034C-9828.691,4775.975 -9817.937,4756.568 -9810.52,4734.813C-9803.104,4713.057 -9799.395,4690.066 -9799.395,4665.838C-9799.395,4642.599 -9804.216,4622.327 -9813.858,4605.021C-9823.499,4587.716 -9837.344,4574.242 -9855.391,4564.6C-9873.438,4554.959 -9895.565,4550.138 -9921.77,4550.138C-9946.987,4550.138 -9969.731,4554.835 -9990.004,4564.229C-10010.276,4573.624 -10027.458,4586.85 -10041.549,4603.909C-10055.641,4620.967 -10066.395,4640.374 -10073.812,4662.129C-10081.229,4683.885 -10084.937,4706.877 -10084.937,4731.104C-10084.937,4753.849 -10080.116,4773.998 -10070.474,4791.55C-10060.833,4809.103 -10046.988,4822.7 -10028.941,4832.342C-10010.894,4841.984 -9988.767,4846.804 -9962.562,4846.804ZM-9434.495,4968.438C-9464.162,4968.438 -9492.592,4966.089 -9519.787,4961.392C-9546.981,4956.695 -9571.704,4950.02 -9593.954,4941.367C-9616.204,4932.714 -9635.24,4923.196 -9651.062,4912.813L-9593.212,4803.046C-9575.412,4813.924 -9556.994,4823.195 -9537.958,4830.859C-9518.922,4838.523 -9499.515,4844.332 -9479.737,4848.288C-9459.959,4852.243 -9440.181,4854.221 -9420.404,4854.221C-9401.615,4854.221 -9385.545,4852.367 -9372.195,4848.659C-9358.845,4844.95 -9348.709,4839.635 -9341.787,4832.713C-9334.865,4825.791 -9331.404,4817.632 -9331.404,4808.238C-9331.404,4797.854 -9335.977,4789.573 -9345.124,4783.392C-9354.272,4777.211 -9366.262,4771.896 -9381.095,4767.446C-9395.929,4762.996 -9412.369,4758.423 -9430.416,4753.725C-9448.463,4749.028 -9466.51,4743.342 -9484.558,4736.667C-9502.605,4729.992 -9519.045,4721.586 -9533.879,4711.45C-9548.712,4701.314 -9560.702,4688.335 -9569.849,4672.513C-9578.997,4656.691 -9583.57,4637.16 -9583.57,4613.921C-9583.57,4576.343 -9573.434,4543.71 -9553.162,4516.021C-9532.89,4488.332 -9504.088,4466.824 -9466.758,4451.496C-9429.427,4436.168 -9385.298,4428.504 -9334.37,4428.504C-9297.287,4428.504 -9262.676,4432.336 -9230.537,4440C-9198.398,4447.664 -9170.709,4458.666 -9147.47,4473.004L-9200.87,4582.029C-9221.142,4569.174 -9243.516,4559.409 -9267.991,4552.734C-9292.466,4546.059 -9317.559,4542.721 -9343.27,4542.721C-9363.048,4542.721 -9379.983,4544.946 -9394.074,4549.396C-9408.166,4553.846 -9418.797,4559.903 -9425.966,4567.567C-9433.135,4575.231 -9436.72,4583.76 -9436.72,4593.154C-9436.72,4603.043 -9432.27,4611.202 -9423.37,4617.629C-9414.47,4624.057 -9402.48,4629.496 -9387.399,4633.946C-9372.319,4638.396 -9355.755,4642.97 -9337.708,4647.667C-9319.66,4652.364 -9301.737,4657.803 -9283.937,4663.984C-9266.137,4670.164 -9249.573,4678.323 -9234.245,4688.459C-9218.917,4698.595 -9206.804,4711.327 -9197.904,4726.654C-9189.004,4741.982 -9184.554,4761.018 -9184.554,4783.763C-9184.554,4820.846 -9194.69,4853.232 -9214.962,4880.921C-9235.234,4908.61 -9264.159,4930.118 -9301.737,4945.446C-9339.315,4960.774 -9383.567,4968.438 -9434.495,4968.438ZM-8916.812,4800.821L-8895.304,4692.538L-8679.479,4692.538L-8700.987,4800.821L-8916.812,4800.821ZM-8238.828,4684.427L-8293.812,4958.054L-8428.795,4958.054L-8324.962,4438.888L-8205.554,4438.888L-8083.87,4739.628L-7848.07,4438.888L-7722.729,4438.888L-7825.079,4958.054L-7960.804,4958.054L-7907.279,4684.626L-8080.212,4906.879L-8144.737,4906.879L-8238.828,4684.427ZM-7534.835,4749.646L-7553.629,4844.579L-7281.437,4844.579L-7305.17,4958.054L-7721.245,4958.054L-7617.412,4438.888L-7210.979,4438.888L-7233.97,4552.363L-7495.779,4552.363L-7513.104,4639.879L-7282.179,4639.879L-7303.687,4749.646L-7534.835,4749.646ZM-7032.878,4684.427L-7087.862,4958.054L-7222.845,4958.054L-7119.012,4438.888L-6999.604,4438.888L-6877.92,4739.628L-6642.12,4438.888L-6516.779,4438.888L-6619.129,4958.054L-6754.854,4958.054L-6701.329,4684.626L-6874.262,4906.879L-6938.787,4906.879L-7032.878,4684.427ZM-6061.084,4690.39C-6051.203,4694.676 -6042.159,4699.842 -6033.954,4705.888C-6005.77,4726.654 -5991.679,4755.827 -5991.679,4793.404C-5991.679,4830.982 -6002.185,4861.885 -6023.199,4886.113C-6044.213,4910.341 -6072.644,4928.388 -6108.491,4940.254C-6144.338,4952.121 -6184.759,4958.054 -6229.754,4958.054L-6515.295,4958.054L-6411.462,4438.888L-6148.912,4438.888C-6090.073,4438.888 -6045.326,4449.395 -6014.67,4470.409C-5984.015,4491.423 -5968.687,4521.46 -5968.687,4560.521C-5968.687,4592.66 -5977.587,4619.854 -5995.387,4642.104C-6011.941,4662.797 -6033.84,4678.892 -6061.084,4690.39ZM-6328.048,4746.679L-6349.162,4851.996L-6221.595,4851.996C-6195.884,4851.996 -6175.488,4846.804 -6160.408,4836.421C-6145.327,4826.038 -6137.787,4810.71 -6137.787,4790.438C-6137.787,4775.11 -6143.473,4763.985 -6154.845,4757.063C-6166.217,4750.141 -6180.804,4746.679 -6198.604,4746.679L-6328.048,4746.679ZM-6307.677,4645.071L-6202.312,4645.071C-6185.006,4645.071 -6170.297,4642.846 -6158.183,4638.396C-6146.069,4633.946 -6137.045,4627.271 -6131.112,4618.371C-6125.179,4609.471 -6122.212,4598.593 -6122.212,4585.738C-6122.212,4571.399 -6127.651,4561.016 -6138.529,4554.588C-6149.406,4548.16 -6164.487,4544.946 -6183.77,4544.946L-6287.604,4544.946L-6307.677,4645.071ZM-5770.615,4820.104L-5798.104,4958.054L-5944.954,4958.054L-5841.12,4438.888L-5619.362,4438.888C-5552.612,4438.888 -5501.066,4453.474 -5464.724,4482.646C-5428.383,4511.818 -5410.212,4552.363 -5410.212,4604.279C-5410.212,4647.791 -5420.719,4685.739 -5441.733,4718.125C-5462.747,4750.511 -5492.537,4775.604 -5531.104,4793.404C-5538.536,4796.835 -5546.226,4799.935 -5554.173,4802.704L-5465.837,4958.054L-5619.362,4958.054L-5696.722,4820.104L-5770.615,4820.104ZM-5748.09,4706.629L-5660.895,4706.629C-5628.262,4706.629 -5603.045,4698.966 -5585.245,4683.638C-5567.445,4668.31 -5558.545,4646.554 -5558.545,4618.371C-5558.545,4596.616 -5565.715,4580.546 -5580.054,4570.163C-5594.392,4559.779 -5614.417,4554.588 -5640.129,4554.588L-5717.292,4554.588L-5748.09,4706.629ZM-5243.491,4857.188L-5303.412,4958.054L-5458.42,4958.054L-5125.412,4438.888L-4980.787,4438.888L-4855.445,4958.054L-5001.554,4958.054L-5022.359,4857.188L-5243.491,4857.188ZM-5044.695,4748.904L-5079.352,4580.887L-5179.164,4748.904L-5044.695,4748.904ZM-4612.453,4673.273L-4669.287,4958.054L-4813.17,4958.054L-4709.337,4438.888L-4588.445,4438.888L-4416.695,4722.913L-4360.012,4438.888L-4216.129,4438.888L-4319.962,4958.054L-4440.854,4958.054L-4612.453,4673.273ZM-4062.758,4857.188L-4122.679,4958.054L-4277.687,4958.054L-3944.679,4438.888L-3800.054,4438.888L-3674.712,4958.054L-3820.82,4958.054L-3841.626,4857.188L-4062.758,4857.188ZM-3863.962,4748.904L-3898.619,4580.887L-3998.431,4748.904L-3863.962,4748.904ZM-3438.862,4968.438C-3468.529,4968.438 -3496.959,4966.089 -3524.154,4961.392C-3551.348,4956.695 -3576.07,4950.02 -3598.32,4941.367C-3620.57,4932.714 -3639.606,4923.196 -3655.429,4912.813L-3597.579,4803.046C-3579.779,4813.924 -3561.36,4823.195 -3542.324,4830.859C-3523.288,4838.523 -3503.881,4844.332 -3484.104,4848.288C-3464.326,4852.243 -3444.548,4854.221 -3424.77,4854.221C-3405.981,4854.221 -3389.912,4852.367 -3376.562,4848.659C-3363.212,4844.95 -3353.076,4839.635 -3346.154,4832.713C-3339.231,4825.791 -3335.77,4817.632 -3335.77,4808.238C-3335.77,4797.854 -3340.344,4789.573 -3349.491,4783.392C-3358.638,4777.211 -3370.629,4771.896 -3385.462,4767.446C-3400.295,4762.996 -3416.735,4758.423 -3434.783,4753.725C-3452.83,4749.028 -3470.877,4743.342 -3488.924,4736.667C-3506.972,4729.992 -3523.412,4721.586 -3538.245,4711.45C-3553.079,4701.314 -3565.069,4688.335 -3574.216,4672.513C-3583.363,4656.691 -3587.937,4637.16 -3587.937,4613.921C-3587.937,4576.343 -3577.801,4543.71 -3557.529,4516.021C-3537.256,4488.332 -3508.455,4466.824 -3471.124,4451.496C-3433.794,4436.168 -3389.665,4428.504 -3338.737,4428.504C-3301.654,4428.504 -3267.042,4432.336 -3234.904,4440C-3202.765,4447.664 -3175.076,4458.666 -3151.837,4473.004L-3205.237,4582.029C-3225.509,4569.174 -3247.883,4559.409 -3272.358,4552.734C-3296.833,4546.059 -3321.926,4542.721 -3347.637,4542.721C-3367.415,4542.721 -3384.349,4544.946 -3398.441,4549.396C-3412.533,4553.846 -3423.163,4559.903 -3430.333,4567.567C-3437.502,4575.231 -3441.087,4583.76 -3441.087,4593.154C-3441.087,4603.043 -3436.637,4611.202 -3427.737,4617.629C-3418.837,4624.057 -3406.847,4629.496 -3391.766,4633.946C-3376.685,4638.396 -3360.122,4642.97 -3342.074,4647.667C-3324.027,4652.364 -3306.104,4657.803 -3288.304,4663.984C-3270.504,4670.164 -3253.94,4678.323 -3238.612,4688.459C-3223.284,4698.595 -3211.17,4711.327 -3202.27,4726.654C-3193.37,4741.982 -3188.92,4761.018 -3188.92,4783.763C-3188.92,4820.846 -3199.056,4853.232 -3219.329,4880.921C-3239.601,4908.61 -3268.526,4930.118 -3306.104,4945.446C-3343.681,4960.774 -3387.934,4968.438 -3438.862,4968.438ZM-2921.179,4800.821L-2899.67,4692.538L-2683.845,4692.538L-2705.354,4800.821L-2921.179,4800.821ZM-2239.587,4968.438C-2269.254,4968.438 -2297.684,4966.089 -2324.879,4961.392C-2352.073,4956.695 -2376.795,4950.02 -2399.045,4941.367C-2421.295,4932.714 -2440.331,4923.196 -2456.154,4912.813L-2398.304,4803.046C-2380.504,4813.924 -2362.085,4823.195 -2343.049,4830.859C-2324.013,4838.523 -2304.606,4844.332 -2284.829,4848.288C-2265.051,4852.243 -2245.273,4854.221 -2225.495,4854.221C-2206.706,4854.221 -2190.637,4852.367 -2177.287,4848.659C-2163.937,4844.95 -2153.801,4839.635 -2146.879,4832.713C-2139.956,4825.791 -2136.495,4817.632 -2136.495,4808.238C-2136.495,4797.854 -2141.069,4789.573 -2150.216,4783.392C-2159.363,4777.211 -2171.354,4771.896 -2186.187,4767.446C-2201.02,4762.996 -2217.46,4758.423 -2235.508,4753.725C-2253.555,4749.028 -2271.602,4743.342 -2289.649,4736.667C-2307.697,4729.992 -2324.137,4721.586 -2338.97,4711.45C-2353.804,4701.314 -2365.794,4688.335 -2374.941,4672.513C-2384.088,4656.691 -2388.662,4637.16 -2388.662,4613.921C-2388.662,4576.343 -2378.526,4543.71 -2358.254,4516.021C-2337.981,4488.332 -2309.18,4466.824 -2271.849,4451.496C-2234.519,4436.168 -2190.39,4428.504 -2139.462,4428.504C-2102.379,4428.504 -2067.767,4432.336 -2035.629,4440C-2003.49,4447.664 -1975.801,4458.666 -1952.562,4473.004L-2005.962,4582.029C-2026.234,4569.174 -2048.608,4559.409 -2073.083,4552.734C-2097.558,4546.059 -2122.651,4542.721 -2148.362,4542.721C-2168.14,4542.721 -2185.074,4544.946 -2199.166,4549.396C-2213.258,4553.846 -2223.888,4559.903 -2231.058,4567.567C-2238.227,4575.231 -2241.812,4583.76 -2241.812,4593.154C-2241.812,4603.043 -2237.362,4611.202 -2228.462,4617.629C-2219.562,4624.057 -2207.572,4629.496 -2192.491,4633.946C-2177.41,4638.396 -2160.847,4642.97 -2142.799,4647.667C-2124.752,4652.364 -2106.829,4657.803 -2089.029,4663.984C-2071.229,4670.164 -2054.665,4678.323 -2039.337,4688.459C-2024.009,4698.595 -2011.895,4711.327 -2002.995,4726.654C-1994.095,4741.982 -1989.645,4761.018 -1989.645,4783.763C-1989.645,4820.846 -1999.781,4853.232 -2020.054,4880.921C-2040.326,4908.61 -2069.251,4930.118 -2106.829,4945.446C-2144.406,4960.774 -2188.659,4968.438 -2239.587,4968.438ZM-1766.893,4749.646L-1785.687,4844.579L-1513.495,4844.579L-1537.229,4958.054L-1953.304,4958.054L-1849.47,4438.888L-1443.037,4438.888L-1466.029,4552.363L-1727.837,4552.363L-1745.163,4639.879L-1514.237,4639.879L-1535.745,4749.646L-1766.893,4749.646ZM-1280.565,4820.104L-1308.054,4958.054L-1454.904,4958.054L-1351.07,4438.888L-1129.312,4438.888C-1062.562,4438.888 -1011.016,4453.474 -974.674,4482.646C-938.333,4511.818 -920.162,4552.363 -920.162,4604.279C-920.162,4647.791 -930.669,4685.739 -951.683,4718.125C-972.697,4750.511 -1002.487,4775.604 -1041.054,4793.404C-1048.486,4796.835 -1056.176,4799.935 -1064.123,4802.704L-975.787,4958.054L-1129.312,4958.054L-1206.672,4820.104L-1280.565,4820.104ZM-1258.04,4706.629L-1170.845,4706.629C-1138.212,4706.629 -1112.995,4698.966 -1095.195,4683.638C-1077.395,4668.31 -1068.495,4646.554 -1068.495,4618.371C-1068.495,4596.616 -1075.665,4580.546 -1090.004,4570.163C-1104.342,4559.779 -1124.367,4554.588 -1150.079,4554.588L-1227.242,4554.588L-1258.04,4706.629ZM-639.489,4776.313L-427.695,4438.888L-276.395,4438.888L-601.987,4958.054L-746.612,4958.054L-864.537,4438.888L-713.979,4438.888L-639.489,4776.313ZM-349.079,4958.054L-245.245,4438.888L-98.395,4438.888L-202.229,4958.054L-349.079,4958.054ZM185.663,4968.438C132.758,4968.438 86.651,4958.796 47.342,4939.513C8.034,4920.229 -22.251,4893.406 -43.512,4859.042C-64.773,4824.678 -75.404,4784.999 -75.404,4740.004C-75.404,4695.01 -67.492,4653.477 -51.67,4615.404C-35.848,4577.332 -13.598,4544.328 15.08,4516.392C43.758,4488.456 77.998,4466.824 117.801,4451.496C157.603,4436.168 201.733,4428.504 250.188,4428.504C298.149,4428.504 340.671,4436.91 377.755,4453.721C414.838,4470.532 442.527,4494.76 460.821,4526.404L354.763,4610.954C342.896,4591.177 327.445,4576.096 308.409,4565.713C289.373,4555.329 266.752,4550.138 240.546,4550.138C215.33,4550.138 192.462,4554.588 171.942,4563.488C151.423,4572.388 133.746,4584.996 118.913,4601.313C104.08,4617.629 92.708,4636.789 84.796,4658.792C76.885,4680.795 72.93,4704.652 72.93,4730.363C72.93,4753.602 77.998,4773.998 88.134,4791.55C98.27,4809.103 112.856,4822.7 131.892,4832.342C150.928,4841.984 173.549,4846.804 199.755,4846.804C222.994,4846.804 245.367,4842.107 266.876,4832.713C288.384,4823.318 308.285,4807.991 326.58,4786.729L413.355,4872.021C384.183,4907.127 350.56,4931.973 312.488,4946.559C274.416,4961.145 232.141,4968.438 185.663,4968.438ZM449.696,4958.054L553.53,4438.888L700.38,4438.888L596.546,4958.054L449.696,4958.054ZM981.471,4968.438C928.071,4968.438 882.088,4958.673 843.521,4939.142C804.955,4919.611 775.288,4892.788 754.521,4858.671C733.755,4824.554 723.371,4784.999 723.371,4740.004C723.371,4694.516 731.283,4652.859 747.105,4615.034C762.927,4577.209 785.177,4544.328 813.855,4516.392C842.533,4488.456 876.773,4466.824 916.576,4451.496C956.378,4436.168 1000.013,4428.504 1047.48,4428.504C1100.88,4428.504 1146.863,4438.27 1185.43,4457.8C1223.996,4477.331 1253.663,4504.154 1274.43,4538.271C1295.196,4572.388 1305.58,4611.943 1305.58,4656.938C1305.58,4702.427 1297.669,4744.084 1281.846,4781.909C1266.024,4819.734 1243.774,4852.614 1215.096,4880.55C1186.419,4908.486 1152.178,4930.118 1112.376,4945.446C1072.573,4960.774 1028.938,4968.438 981.471,4968.438ZM994.08,4846.804C1019.791,4846.804 1042.659,4842.107 1062.684,4832.713C1082.709,4823.318 1099.767,4810.092 1113.859,4793.034C1127.951,4775.975 1138.705,4756.568 1146.121,4734.813C1153.538,4713.057 1157.246,4690.066 1157.246,4665.838C1157.246,4642.599 1152.426,4622.327 1142.784,4605.021C1133.142,4587.716 1119.298,4574.242 1101.251,4564.6C1083.203,4554.959 1061.077,4550.138 1034.871,4550.138C1009.655,4550.138 986.91,4554.835 966.638,4564.229C946.366,4573.624 929.184,4586.85 915.092,4603.909C901.001,4620.967 890.246,4640.374 882.83,4662.129C875.413,4683.885 871.705,4706.877 871.705,4731.104C871.705,4753.849 876.526,4773.998 886.167,4791.55C895.809,4809.103 909.653,4822.7 927.701,4832.342C945.748,4841.984 967.874,4846.804 994.08,4846.804ZM1522.146,4968.438C1492.48,4968.438 1464.049,4966.089 1436.855,4961.392C1409.66,4956.695 1384.938,4950.02 1362.688,4941.367C1340.438,4932.714 1321.402,4923.196 1305.58,4912.813L1363.43,4803.046C1381.23,4813.924 1399.648,4823.195 1418.684,4830.859C1437.72,4838.523 1457.127,4844.332 1476.905,4848.288C1496.683,4852.243 1516.46,4854.221 1536.238,4854.221C1555.027,4854.221 1571.096,4852.367 1584.446,4848.659C1597.796,4844.95 1607.933,4839.635 1614.855,4832.713C1621.777,4825.791 1625.238,4817.632 1625.238,4808.238C1625.238,4797.854 1620.665,4789.573 1611.517,4783.392C1602.37,4777.211 1590.38,4771.896 1575.546,4767.446C1560.713,4762.996 1544.273,4758.423 1526.226,4753.725C1508.178,4749.028 1490.131,4743.342 1472.084,4736.667C1454.037,4729.992 1437.596,4721.586 1422.763,4711.45C1407.93,4701.314 1395.94,4688.335 1386.792,4672.513C1377.645,4656.691 1373.071,4637.16 1373.071,4613.921C1373.071,4576.343 1383.208,4543.71 1403.48,4516.021C1423.752,4488.332 1452.553,4466.824 1489.884,4451.496C1527.215,4436.168 1571.344,4428.504 1622.271,4428.504C1659.355,4428.504 1693.966,4432.336 1726.105,4440C1758.244,4447.664 1785.933,4458.666 1809.171,4473.004L1755.771,4582.029C1735.499,4569.174 1713.126,4559.409 1688.651,4552.734C1664.176,4546.059 1639.083,4542.721 1613.371,4542.721C1593.594,4542.721 1576.659,4544.946 1562.567,4549.396C1548.476,4553.846 1537.845,4559.903 1530.676,4567.567C1523.506,4575.231 1519.921,4583.76 1519.921,4593.154C1519.921,4603.043 1524.371,4611.202 1533.271,4617.629C1542.171,4624.057 1554.162,4629.496 1569.242,4633.946C1584.323,4638.396 1600.887,4642.97 1618.934,4647.667C1636.981,4652.364 1654.905,4657.803 1672.705,4663.984C1690.505,4670.164 1707.069,4678.323 1722.396,4688.459C1737.724,4698.595 1749.838,4711.327 1758.738,4726.654C1767.638,4741.982 1772.088,4761.018 1772.088,4783.763C1772.088,4820.846 1761.952,4853.232 1741.68,4880.921C1721.408,4908.61 1692.483,4930.118 1654.905,4945.446C1617.327,4960.774 1573.074,4968.438 1522.146,4968.438Z"/></g></g></g></g></g><defs><linearGradient id="_Linear2" x1="0" y1="0" x2="1" y2="0" gradientUnits="userSpaceOnUse" gradientTransform="matrix(0,-576.489201,576.489201,0,-5639.244293,7968.880709)"><stop offset="0" style="stop-color:rgb(231,64,22);stop-opacity:1"/><stop offset="0.2" style="stop-color:rgb(240,76,25);stop-opacity:1"/><stop offset="0.42" style="stop-color:rgb(250,89,28);stop-opacity:1"/><stop offset="1" style="stop-color:rgb(254,95,30);stop-opacity:1"/></linearGradient><linearGradient id="_Linear3" x1="0" y1="0" x2="1" y2="0" gradientUnits="userSpaceOnUse" gradientTransform="matrix(0,-576.489201,576.489201,0,-5666.350593,7968.880709)"><stop offset="0" style="stop-color:rgb(231,64,22);stop-opacity:1"/><stop offset="0.2" style="stop-color:rgb(240,76,25);stop-opacity:1"/><stop offset="0.42" style="stop-color:rgb(250,89,28);stop-opacity:1"/><stop offset="1" style="stop-color:rgb(254,95,30);stop-opacity:1"/></linearGradient><linearGradient id="_Linear4" x1="0" y1="0" x2="1" y2="0" gradientUnits="userSpaceOnUse" gradientTransform="matrix(0,-576.489201,576.489201,0,-5725.345465,7968.880709)"><stop offset="0" style="stop-color:rgb(231,64,22);stop-opacity:1"/><stop offset="0.2" style="stop-color:rgb(240,76,25);stop-opacity:1"/><stop offset="0.42" style="stop-color:rgb(250,89,28);stop-opacity:1"/><stop offset="1" style="stop-color:rgb(254,95,30);stop-opacity:1"/></linearGradient></defs></svg>